<?xml version="1.0" encoding="UTF-8"?>
<!--Generator: Apple Native CoreSVG 336-->
<!DOCTYPE svg
PUBLIC "-//W3C//DTD SVG 1.1//EN"
       "http://www.w3.org/Graphics/SVG/1.1/DTD/svg11.dtd">
<svg version="1.1" xmlns="http://www.w3.org/2000/svg" xmlns:xlink="http://www.w3.org/1999/xlink" viewBox="0 0 3300 2200">
 <!--glyph: "100149", point size: 100.0, font version: "20.0d10e1", template writer version: "138.0.0"-->
 <style>.SFSymbolsPreviewWireframe {fill:none;opacity:1.0;stroke:black;stroke-width:0.5}
</style>
 <g id="Notes">
  <rect height="2200" id="artboard" style="fill:white;opacity:1" width="3300" x="0" y="0"/>
  <line style="fill:none;stroke:black;opacity:1;stroke-width:0.5;" x1="263" x2="3036" y1="292" y2="292"/>
  <text style="stroke:none;fill:black;font-family:sans-serif;font-size:13;font-weight:bold;" transform="matrix(1 0 0 1 263 322)">Weight/Scale Variations</text>
  <text style="stroke:none;fill:black;font-family:sans-serif;font-size:13;text-anchor:middle;" transform="matrix(1 0 0 1 559.711 322)">Ultralight</text>
  <text style="stroke:none;fill:black;font-family:sans-serif;font-size:13;text-anchor:middle;" transform="matrix(1 0 0 1 856.422 322)">Thin</text>
  <text style="stroke:none;fill:black;font-family:sans-serif;font-size:13;text-anchor:middle;" transform="matrix(1 0 0 1 1153.13 322)">Light</text>
  <text style="stroke:none;fill:black;font-family:sans-serif;font-size:13;text-anchor:middle;" transform="matrix(1 0 0 1 1449.84 322)">Regular</text>
  <text style="stroke:none;fill:black;font-family:sans-serif;font-size:13;text-anchor:middle;" transform="matrix(1 0 0 1 1746.56 322)">Medium</text>
  <text style="stroke:none;fill:black;font-family:sans-serif;font-size:13;text-anchor:middle;" transform="matrix(1 0 0 1 2043.27 322)">Semibold</text>
  <text style="stroke:none;fill:black;font-family:sans-serif;font-size:13;text-anchor:middle;" transform="matrix(1 0 0 1 2339.98 322)">Bold</text>
  <text style="stroke:none;fill:black;font-family:sans-serif;font-size:13;text-anchor:middle;" transform="matrix(1 0 0 1 2636.69 322)">Heavy</text>
  <text style="stroke:none;fill:black;font-family:sans-serif;font-size:13;text-anchor:middle;" transform="matrix(1 0 0 1 2933.4 322)">Black</text>
  <line style="fill:none;stroke:black;opacity:1;stroke-width:0.5;" x1="263" x2="3036" y1="1903" y2="1903"/>
  <g transform="matrix(0.2 0 0 0.2 263 1933)">
   <path d="m46.2402 4.15039c21.7773 0 39.4531-17.627 39.4531-39.4043s-17.6758-39.4043-39.4531-39.4043c-21.7285 0-39.4043 17.627-39.4043 39.4043s17.6758 39.4043 39.4043 39.4043Zm0-7.42188c-17.6758 0-31.9336-14.3066-31.9336-31.9824s14.2578-31.9824 31.9336-31.9824 31.9824 14.3066 31.9824 31.9824-14.3066 31.9824-31.9824 31.9824Zm-17.9688-31.9824c0 2.14844 1.51367 3.61328 3.75977 3.61328h10.498v10.5957c0 2.19727 1.46484 3.71094 3.61328 3.71094 2.24609 0 3.71094-1.51367 3.71094-3.71094v-10.5957h10.5957c2.19727 0 3.71094-1.46484 3.71094-3.61328 0-2.19727-1.51367-3.71094-3.71094-3.71094h-10.5957v-10.5469c0-2.24609-1.46484-3.75977-3.71094-3.75977-2.14844 0-3.61328 1.51367-3.61328 3.75977v10.5469h-10.498c-2.24609 0-3.75977 1.51367-3.75977 3.71094Z"/>
  </g>
  <g transform="matrix(0.2 0 0 0.2 281.506 1933)">
   <path d="m58.5449 14.5508c27.4902 0 49.8047-22.3145 49.8047-49.8047s-22.3145-49.8047-49.8047-49.8047-49.8047 22.3145-49.8047 49.8047 22.3145 49.8047 49.8047 49.8047Zm0-8.30078c-22.9492 0-41.5039-18.5547-41.5039-41.5039s18.5547-41.5039 41.5039-41.5039 41.5039 18.5547 41.5039 41.5039-18.5547 41.5039-41.5039 41.5039Zm-22.6562-41.5039c0 2.39258 1.66016 4.00391 4.15039 4.00391h14.3555v14.4043c0 2.44141 1.66016 4.15039 4.05273 4.15039 2.44141 0 4.15039-1.66016 4.15039-4.15039v-14.4043h14.4043c2.44141 0 4.15039-1.61133 4.15039-4.00391 0-2.44141-1.70898-4.15039-4.15039-4.15039h-14.4043v-14.3555c0-2.49023-1.70898-4.19922-4.15039-4.19922-2.39258 0-4.05273 1.70898-4.05273 4.19922v14.3555h-14.3555c-2.49023 0-4.15039 1.70898-4.15039 4.15039Z"/>
  </g>
  <g transform="matrix(0.2 0 0 0.2 304.924 1933)">
   <path d="m74.8535 28.3203c35.1074 0 63.623-28.4668 63.623-63.5742s-28.5156-63.623-63.623-63.623-63.5742 28.5156-63.5742 63.623 28.4668 63.5742 63.5742 63.5742Zm0-9.08203c-30.127 0-54.4922-24.3652-54.4922-54.4922s24.3652-54.4922 54.4922-54.4922 54.4922 24.3652 54.4922 54.4922-24.3652 54.4922-54.4922 54.4922Zm-28.8574-54.4922c0 2.58789 1.85547 4.39453 4.58984 4.39453h19.7266v19.7754c0 2.68555 1.85547 4.58984 4.44336 4.58984 2.68555 0 4.54102-1.85547 4.54102-4.58984v-19.7754h19.7754c2.68555 0 4.58984-1.80664 4.58984-4.39453 0-2.73438-1.85547-4.58984-4.58984-4.58984h-19.7754v-19.7266c0-2.73438-1.85547-4.63867-4.54102-4.63867-2.58789 0-4.44336 1.9043-4.44336 4.63867v19.7266h-19.7266c-2.73438 0-4.58984 1.85547-4.58984 4.58984Z"/>
  </g>
  <text style="stroke:none;fill:black;font-family:sans-serif;font-size:13;font-weight:bold;" transform="matrix(1 0 0 1 263 1953)">Design Variations</text>
  <text style="stroke:none;fill:black;font-family:sans-serif;font-size:13;" transform="matrix(1 0 0 1 263 1971)">Symbols are supported in up to nine weights and three scales.</text>
  <text style="stroke:none;fill:black;font-family:sans-serif;font-size:13;" transform="matrix(1 0 0 1 263 1989)">For optimal layout with text and other symbols, vertically align</text>
  <text style="stroke:none;fill:black;font-family:sans-serif;font-size:13;" transform="matrix(1 0 0 1 263 2007)">symbols with the adjacent text.</text>
  <line style="fill:none;stroke:#00AEEF;stroke-width:0.5;opacity:1.0;" x1="776" x2="776" y1="1919" y2="1933"/>
  <g transform="matrix(0.2 0 0 0.2 776 1933)">
   <path d="m16.5527 0.78125c2.58789 0 3.85742-0.976562 4.78516-3.71094l6.29883-17.2363h28.8086l6.29883 17.2363c0.927734 2.73438 2.19727 3.71094 4.73633 3.71094 2.58789 0 4.24805-1.5625 4.24805-4.00391 0-0.830078-0.146484-1.61133-0.537109-2.63672l-22.9004-60.9863c-1.12305-2.97852-3.125-4.49219-6.25-4.49219-3.02734 0-5.07812 1.46484-6.15234 4.44336l-22.9004 61.084c-0.390625 1.02539-0.537109 1.80664-0.537109 2.63672 0 2.44141 1.5625 3.95508 4.10156 3.95508Zm13.4766-28.3691 11.8652-32.8613h0.244141l11.8652 32.8613Z"/>
  </g>
  <line style="fill:none;stroke:#00AEEF;stroke-width:0.5;opacity:1.0;" x1="792.836" x2="792.836" y1="1919" y2="1933"/>
  <text style="stroke:none;fill:black;font-family:sans-serif;font-size:13;font-weight:bold;" transform="matrix(1 0 0 1 776 1953)">Margins</text>
  <text style="stroke:none;fill:black;font-family:sans-serif;font-size:13;" transform="matrix(1 0 0 1 776 1971)">Leading and trailing margins on the left and right side of each symbol</text>
  <text style="stroke:none;fill:black;font-family:sans-serif;font-size:13;" transform="matrix(1 0 0 1 776 1989)">can be adjusted by modifying the x-location of the margin guidelines.</text>
  <text style="stroke:none;fill:black;font-family:sans-serif;font-size:13;" transform="matrix(1 0 0 1 776 2007)">Modifications are automatically applied proportionally to all</text>
  <text style="stroke:none;fill:black;font-family:sans-serif;font-size:13;" transform="matrix(1 0 0 1 776 2025)">scales and weights.</text>
  <g transform="matrix(0.2 0 0 0.2 1289 1933)">
   <path d="m14.209 9.32617 8.49609 8.54492c4.29688 4.3457 9.22852 4.05273 13.8672-1.07422l53.4668-58.9355-4.83398-4.88281-53.0762 58.3984c-1.75781 2.00195-3.41797 2.49023-5.76172 0.146484l-5.85938-5.81055c-2.34375-2.29492-1.80664-4.00391 0.195312-5.81055l57.373-54.0039-4.88281-4.83398-57.959 54.4434c-4.93164 4.58984-5.32227 9.47266-1.02539 13.8184Zm32.0801-90.9668c-2.09961 2.05078-2.24609 4.93164-1.07422 6.88477 1.17188 1.80664 3.4668 2.97852 6.68945 2.14844 7.32422-1.70898 14.9414-2.00195 22.0703 2.68555l-2.92969 7.27539c-1.70898 4.15039-0.830078 7.08008 1.85547 9.81445l11.4746 11.5723c2.44141 2.44141 4.49219 2.53906 7.32422 2.05078l5.32227-0.976562 3.32031 3.36914-0.195312 2.7832c-0.195312 2.49023 0.439453 4.39453 2.88086 6.78711l3.80859 3.71094c2.39258 2.39258 5.46875 2.53906 7.8125 0.195312l14.5508-14.5996c2.34375-2.34375 2.24609-5.32227-0.146484-7.71484l-3.85742-3.80859c-2.39258-2.39258-4.24805-3.17383-6.64062-2.97852l-2.88086 0.244141-3.22266-3.17383 1.2207-5.61523c0.634766-2.83203-0.146484-5.0293-3.07617-7.95898l-10.9863-10.9375c-16.6992-16.6016-38.8672-16.2109-53.3203-1.75781Zm7.4707 1.85547c12.1582-8.88672 28.6133-7.37305 39.7461 3.75977l12.1582 12.0605c1.17188 1.17188 1.36719 2.09961 1.02539 3.80859l-1.61133 7.42188 7.51953 7.42188 4.93164-0.292969c1.26953-0.0488281 1.66016 0.0488281 2.63672 1.02539l2.88086 2.88086-12.207 12.207-2.88086-2.88086c-0.976562-0.976562-1.12305-1.36719-1.07422-2.68555l0.341797-4.88281-7.4707-7.42188-7.61719 1.26953c-1.61133 0.341797-2.34375 0.195312-3.56445-0.976562l-10.0098-10.0098c-1.26953-1.17188-1.41602-2.00195-0.634766-3.85742l4.39453-10.4492c-7.8125-7.27539-17.9688-10.4004-28.125-7.42188-0.78125 0.195312-1.07422-0.439453-0.439453-0.976562Z"/>
  </g>
  <text style="stroke:none;fill:black;font-family:sans-serif;font-size:13;font-weight:bold;" transform="matrix(1 0 0 1 1289 1953)">Exporting</text>
  <text style="stroke:none;fill:black;font-family:sans-serif;font-size:13;" transform="matrix(1 0 0 1 1289 1971)">Symbols should be outlined when exporting to ensure the</text>
  <text style="stroke:none;fill:black;font-family:sans-serif;font-size:13;" transform="matrix(1 0 0 1 1289 1989)">design is preserved when submitting to Xcode.</text>
  <text id="template-version" style="stroke:none;fill:black;font-family:sans-serif;font-size:13;text-anchor:end;" transform="matrix(1 0 0 1 3036 1933)">Template v.6.0</text>
  <text style="stroke:none;fill:black;font-family:sans-serif;font-size:13;text-anchor:end;" transform="matrix(1 0 0 1 3036 1951)">Requires Xcode 16 or greater</text>
  <text id="descriptive-name" style="stroke:none;fill:black;font-family:sans-serif;font-size:13;text-anchor:end;" transform="matrix(1 0 0 1 3036 1969)">Generated from arrow.counterclockwise</text>
  <text style="stroke:none;fill:black;font-family:sans-serif;font-size:13;text-anchor:end;" transform="matrix(1 0 0 1 3036 1987)">Typeset at 100.0 points</text>
  <text style="stroke:none;fill:black;font-family:sans-serif;font-size:13;" transform="matrix(1 0 0 1 263 726)">Small</text>
  <text style="stroke:none;fill:black;font-family:sans-serif;font-size:13;" transform="matrix(1 0 0 1 263 1156)">Medium</text>
  <text style="stroke:none;fill:black;font-family:sans-serif;font-size:13;" transform="matrix(1 0 0 1 263 1586)">Large</text>
 </g>
 <g id="Guides">
  <g id="H-reference" style="fill:#27AAE1;stroke:none;" transform="matrix(1 0 0 1 339 696)">
   <path d="M0.993654 0L3.63775 0L29.3281-67.1323L30.0303-67.1323L30.0303-70.459L28.1226-70.459ZM11.6885-24.4799L46.9815-24.4799L46.2315-26.7285L12.4385-26.7285ZM55.1196 0L57.7637 0L30.6382-70.459L29.4326-70.459L29.4326-67.1323Z"/>
  </g>
  <line id="Baseline-S" style="fill:none;stroke:#27AAE1;opacity:1;stroke-width:0.5;" x1="263" x2="3036" y1="696" y2="696"/>
  <line id="Capline-S" style="fill:none;stroke:#27AAE1;opacity:1;stroke-width:0.5;" x1="263" x2="3036" y1="625.541" y2="625.541"/>
  <g id="H-reference" style="fill:#27AAE1;stroke:none;" transform="matrix(1 0 0 1 339 1126)">
   <path d="M0.993654 0L3.63775 0L29.3281-67.1323L30.0303-67.1323L30.0303-70.459L28.1226-70.459ZM11.6885-24.4799L46.9815-24.4799L46.2315-26.7285L12.4385-26.7285ZM55.1196 0L57.7637 0L30.6382-70.459L29.4326-70.459L29.4326-67.1323Z"/>
  </g>
  <line id="Baseline-M" style="fill:none;stroke:#27AAE1;opacity:1;stroke-width:0.5;" x1="263" x2="3036" y1="1126" y2="1126"/>
  <line id="Capline-M" style="fill:none;stroke:#27AAE1;opacity:1;stroke-width:0.5;" x1="263" x2="3036" y1="1055.54" y2="1055.54"/>
  <g id="H-reference" style="fill:#27AAE1;stroke:none;" transform="matrix(1 0 0 1 339 1556)">
   <path d="M0.993654 0L3.63775 0L29.3281-67.1323L30.0303-67.1323L30.0303-70.459L28.1226-70.459ZM11.6885-24.4799L46.9815-24.4799L46.2315-26.7285L12.4385-26.7285ZM55.1196 0L57.7637 0L30.6382-70.459L29.4326-70.459L29.4326-67.1323Z"/>
  </g>
  <line id="Baseline-L" style="fill:none;stroke:#27AAE1;opacity:1;stroke-width:0.5;" x1="263" x2="3036" y1="1556" y2="1556"/>
  <line id="Capline-L" style="fill:none;stroke:#27AAE1;opacity:1;stroke-width:0.5;" x1="263" x2="3036" y1="1485.54" y2="1485.54"/>
  <line id="right-margin-Regular-M" style="fill:none;stroke:#00AEEF;stroke-width:0.5;opacity:1.0;" x1="1501.68" x2="1501.68" y1="1030.79" y2="1150.12"/>
  <line id="left-margin-Regular-M" style="fill:none;stroke:#00AEEF;stroke-width:0.5;opacity:1.0;" x1="1398.01" x2="1398.01" y1="1030.79" y2="1150.12"/>
 </g>
 <g id="Symbols">
  <g id="Black-L" transform="matrix(1 0 0 1 2863.77 1556)">
   <path class="SFSymbolsPreviewWireframe" d="M127.995-30.9797C127.995-63.2244 101.871-89.3476 69.6267-89.3476C68.6636-89.3476 67.7649-89.2684 66.8841-89.1036L76.7722-98.3744C78.4298-99.9568 79.454-101.914 79.454-104.655C79.454-110.075 75.1803-114.451 69.8556-114.451C67.227-114.451 65.0381-113.523 63.2649-111.651L37.7471-85.6275C35.7684-83.5903 34.6626-81.1422 34.6626-78.5188C34.6626-75.7394 35.688-73.3925 37.7471-71.3321L63.2661-45.3924C65.0017-43.6776 67.2294-42.7494 69.8544-42.7494C75.1791-42.7494 79.454-47.0267 79.454-52.3883C79.454-55.1076 78.3922-57.0265 76.7514-58.6465L66.0276-69.1786C67.1001-69.3898 68.3125-69.447 69.6267-69.447C90.8358-69.447 108.073-52.2097 108.073-31.0006C108.073-9.79139 90.8358 7.42391 69.6267 7.42391C48.4175 7.42391 31.1814-9.79139 31.1814-31.0006C31.1814-37.1278 27.047-41.2287 21.3117-41.2287C15.4753-41.2287 11.2588-37.1278 11.2588-30.9797C11.2588 1.24295 37.3832 27.3882 69.6267 27.3882C101.871 27.3882 127.995 1.24295 127.995-30.9797Z"/>
  </g>
  <g id="Heavy-L" transform="matrix(1 0 0 1 2567.76 1556)">
   <path class="SFSymbolsPreviewWireframe" d="M126.601-30.891C126.601-62.7579 100.797-88.5623 68.9301-88.5623C67.2053-88.5623 65.5531-88.3932 64.0794-88.0921L75.8028-99.3482C77.264-100.781 78.1559-102.557 78.1559-104.954C78.1559-109.723 74.4199-113.575 69.7338-113.575C67.3738-113.575 65.4303-112.742 63.8855-111.098L38.2092-84.9272C36.4554-83.1287 35.4775-80.9541 35.4775-78.6457C35.4775-76.1989 36.375-74.1349 38.2092-72.295L63.8911-46.2447C65.4215-44.7445 67.385-43.9117 69.7282-43.9117C74.4143-43.9117 78.1559-47.6645 78.1559-52.3885C78.1559-54.756 77.2496-56.5122 75.7726-57.959L62.9358-70.6251C64.6745-71.009 66.7324-71.1424 68.9301-71.1424C91.1248-71.1424 109.151-53.1159 109.151-30.9212C109.151-8.72653 91.1248 9.26416 68.9301 9.26416C46.7354 9.26416 28.7146-8.72653 28.7146-30.9212C28.7146-36.2825 25.1327-39.8958 20.0995-39.8958C14.9558-39.8958 11.2588-36.2825 11.2588-30.891C11.2588 0.940095 37.0688 26.7803 68.9301 26.7803C100.797 26.7803 126.601 0.940095 126.601-30.891Z"/>
  </g>
  <g id="Bold-L" transform="matrix(1 0 0 1 2271.92 1556)">
   <path class="SFSymbolsPreviewWireframe" d="M124.85-30.8132C124.85-62.2039 99.4453-87.6089 68.0545-87.6089C65.325-87.6089 62.6908-87.3097 60.487-86.8322L74.6487-100.718C75.8716-101.959 76.602-103.497 76.602-105.48C76.602-109.434 73.5345-112.633 69.6323-112.633C67.6103-112.633 65.9815-111.923 64.7135-110.563L38.7556-84.1036C37.2561-82.5749 36.4321-80.7385 36.4321-78.8144C36.4321-76.7824 37.1757-75.0643 38.7556-73.4712L64.7267-47.1634C66.0035-45.9245 67.6367-45.2145 69.6191-45.2145C73.5212-45.2145 76.602-48.3218 76.602-52.247C76.602-54.1914 75.8804-55.7254 74.6108-56.957L59.0569-72.3931C61.6104-72.9996 64.7507-73.2476 68.0545-73.2476C91.456-73.2476 110.451-54.2526 110.451-30.8512C110.451-7.44969 91.456 11.494 68.0545 11.494C44.6531 11.494 25.6713-7.44969 25.6713-30.8512C25.6713-35.2672 22.7585-38.2736 18.5936-38.2736C14.3104-38.2736 11.2588-35.2672 11.2588-30.8132C11.2588 0.526362 36.677 25.9826 68.0545 25.9826C99.4453 25.9826 124.85 0.526362 124.85-30.8132Z"/>
  </g>
  <g id="Semibold-L" transform="matrix(1 0 0 1 1975.82 1556)">
   <path class="SFSymbolsPreviewWireframe" d="M123.643-30.7595C123.643-61.822 98.5134-86.9517 67.4509-86.9517C64.0287-86.9517 60.7175-86.5628 58.0104-85.9636L73.8532-101.663C74.9117-102.771 75.5308-104.146 75.5308-105.842C75.5308-109.235 72.9241-111.984 69.5624-111.984C67.7733-111.984 66.3615-111.359 65.2843-110.195L39.1323-83.5359C37.8081-82.1931 37.0901-80.5898 37.0901-78.9307C37.0901-77.1847 37.7277-75.7051 39.1323-74.282L65.3028-47.7967C66.4048-46.738 67.8103-46.1127 69.5439-46.1127C72.9056-46.1127 75.5308-48.7749 75.5308-52.1493C75.5308-53.8022 74.9365-55.183 73.8098-56.2663L56.3829-73.612C59.4981-74.3719 63.3846-74.6989 67.4509-74.6989C91.6844-74.6989 111.347-55.0363 111.347-30.8029C111.347-6.56944 91.6844 13.0313 67.4509 13.0313C43.2175 13.0313 23.5734-6.56944 23.5734-30.8029C23.5734-34.5673 21.1217-37.1553 17.5555-37.1553C13.8655-37.1553 11.2588-34.5673 11.2588-30.7595C11.2588 0.241137 36.4069 25.4326 67.4509 25.4326C98.5134 25.4326 123.643 0.241137 123.643-30.7595Z"/>
  </g>
  <g id="Medium-L" transform="matrix(1 0 0 1 1679.56 1556)">
   <path class="SFSymbolsPreviewWireframe" d="M122.728-30.7188C122.728-61.5324 97.8068-86.4533 66.9932-86.4533C63.0459-86.4533 59.2213-85.9965 56.1326-85.3049L73.2499-102.379C74.1839-103.387 74.7186-104.637 74.7186-106.117C74.7186-109.084 72.4612-111.492 69.5094-111.492C67.897-111.492 66.6497-110.931 65.7172-109.915L39.4179-83.1054C38.2267-81.9037 37.5891-80.477 37.5891-79.0189C37.5891-77.4897 38.1463-76.1909 39.4179-74.8968L65.7396-48.2769C66.7091-47.3549 67.9419-46.7937 69.4869-46.7937C72.4388-46.7937 74.7186-49.1185 74.7186-52.0753C74.7186-53.5071 74.2208-54.7717 73.2025-55.7426L54.3553-74.5362C57.8964-75.4125 62.3487-75.7994 66.9932-75.7994C91.8575-75.7994 112.026-55.6306 112.026-30.7663C112.026-5.90199 91.8575 14.1969 66.9932 14.1969C42.129 14.1969 21.9826-5.90199 21.9826-30.7663C21.9826-34.0366 19.8806-36.3073 16.7683-36.3073C13.5281-36.3073 11.2588-34.0366 11.2588-30.7188C11.2588 0.0248671 36.2021 25.0156 66.9932 25.0156C97.8068 25.0156 122.728 0.0248671 122.728-30.7188Z"/>
  </g>
  <g id="Regular-L" transform="matrix(1 0 0 1 1383.45 1556)">
   <path class="SFSymbolsPreviewWireframe" d="M121.534-30.6658C121.534-61.1547 96.8852-85.8032 66.3963-85.8032C61.7639-85.8032 57.2698-85.2577 53.6832-84.4459L72.4631-103.314C73.2345-104.191 73.6592-105.279 73.6592-106.475C73.6592-108.887 71.8576-110.85 69.4402-110.85C68.0582-110.85 67.0255-110.372 66.2817-109.55L39.7904-82.5439C38.7726-81.5261 38.2399-80.33 38.2399-79.1339C38.2399-77.8876 38.6922-76.8246 39.7904-75.6988L66.3094-48.9032C67.1059-48.1594 68.1135-47.682 69.4126-47.682C71.8299-47.682 73.6592-49.5666 73.6592-51.9788C73.6592-53.1221 73.2873-54.2353 72.4103-55.0595L51.7106-75.7417C55.8073-76.7697 60.9975-77.2348 66.3963-77.2348C92.0834-77.2348 112.913-56.4056 112.913-30.7185C112.913-5.03142 92.0834 15.7173 66.3963 15.7173C40.7091 15.7173 19.9077-5.03142 19.9077-30.7185C19.9077-33.3443 18.2618-35.2012 15.7415-35.2012C13.088-35.2012 11.2588-33.3443 11.2588-30.6658C11.2588-0.257224 35.935 24.4717 66.3963 24.4717C96.8852 24.4717 121.534-0.257224 121.534-30.6658Z"/>
  </g>
  <g id="Light-L" transform="matrix(1 0 0 1 1087.42 1556)">
   <path class="SFSymbolsPreviewWireframe" d="M120.16-30.8184C120.16-60.9257 95.8164-85.2688 65.7092-85.2688C59.9889-85.2688 54.5024-84.5134 50.4387-83.5298L71.9668-105.318C72.6047-106.023 72.9339-106.863 72.9339-107.83C72.9339-109.631 71.6094-111.117 69.6884-111.117C68.5735-111.117 67.8271-110.754 67.236-110.142L40.0003-82.2576C39.0016-81.2589 38.5452-80.2918 38.5452-79.3247C38.5452-78.3838 38.9212-77.5308 40.0003-76.4049L67.2827-48.6551C67.9075-48.064 68.667-47.7011 69.6416-47.7011C71.5627-47.7011 72.9339-49.1658 72.9339-50.9673C72.9339-51.9007 72.6384-52.7275 71.9332-53.3991L48.7142-76.8105C53.3071-78.0484 59.4707-78.7234 65.7092-78.7234C92.1406-78.7234 113.58-57.2836 113.58-30.8521C113.58-4.42069 92.1406 16.9388 65.7092 16.9388C39.2778 16.9388 17.8846-4.42069 17.8846-30.8521C17.8846-32.8481 16.6014-34.2661 14.6727-34.2661C12.63-34.2661 11.2588-32.8481 11.2588-30.8184C11.2588-0.791611 35.6487 23.632 65.7092 23.632C95.8164 23.632 120.16-0.791611 120.16-30.8184Z"/>
  </g>
  <g id="Thin-L" transform="matrix(1 0 0 1 791.622 1556)">
   <path class="SFSymbolsPreviewWireframe" d="M118.342-31.0204C118.342-60.6228 94.4029-84.5621 64.8005-84.5621C57.6414-84.5621 50.8423-83.529 46.1476-82.3182L71.3106-107.968C71.7717-108.446 71.9747-108.958 71.9747-109.622C71.9747-110.616 71.2813-111.47 70.0165-111.47C69.255-111.47 68.8872-111.259 68.4981-110.925L40.278-81.879C39.3045-80.9055 38.9491-80.2413 38.9491-79.5771C38.9491-79.0401 39.2241-78.4647 40.278-77.3389L68.57-48.327C68.9677-47.9378 69.399-47.7264 69.9445-47.7264C71.2093-47.7264 71.9747-48.6357 71.9747-49.6295C71.9747-50.2852 71.7801-50.7334 71.3021-51.203L44.7512-78.224C50.0004-79.7396 57.4514-80.6923 64.8005-80.6923C92.2163-80.6923 114.464-58.4447 114.464-31.0288C114.464-3.61295 92.2163 18.5543 64.8005 18.5543C37.3846 18.5543 15.209-3.61295 15.209-31.0288C15.209-32.1918 14.4053-33.0292 13.2592-33.0292C12.0242-33.0292 11.2588-32.1918 11.2588-31.0204C11.2588-1.49838 35.27 22.5213 64.8005 22.5213C94.4029 22.5213 118.342-1.49838 118.342-31.0204Z"/>
  </g>
  <g id="Ultralight-L" transform="matrix(1 0 0 1 495.376 1556)">
   <path class="SFSymbolsPreviewWireframe" d="M117.411-31.1238C117.411-60.4676 93.6789-84.2001 64.335-84.2001C56.4391-84.2001 48.9677-83.0248 43.9497-81.6976L70.9744-109.326C71.3451-109.687 71.4834-110.031 71.4834-110.54C71.4834-111.12 71.1132-111.651 70.1846-111.651C69.6041-111.651 69.4302-111.517 69.1445-111.325L40.4202-81.685C39.4597-80.7245 39.156-80.2155 39.156-79.7064C39.156-79.3762 39.3793-78.9431 40.4202-77.8172L69.2294-48.1589C69.5107-47.8732 69.7739-47.7393 70.0997-47.7393C71.0283-47.7393 71.4834-48.3642 71.4834-48.9442C71.4834-49.4578 71.3406-49.7121 70.9789-50.0782L42.7214-78.948C48.3068-80.6059 56.4171-81.7007 64.335-81.7007C92.2551-81.7007 114.916-59.0394 114.916-31.1193C114.916-3.19923 92.2551 19.3817 64.335 19.3817C36.415 19.3817 13.8385-3.19923 13.8385-31.1193C13.8385-31.8557 13.2805-32.3957 12.5352-32.3957C11.7139-32.3957 11.2588-31.8557 11.2588-31.1238C11.2588-1.86039 35.0761 21.9524 64.335 21.9524C93.6789 21.9524 117.411-1.86039 117.411-31.1238Z"/>
  </g>
  <g id="Black-M" transform="matrix(1 0 0 1 2878.95 1126)">
   <path class="SFSymbolsPreviewWireframe" d="M100.174-32.034C100.174-57.2883 79.7026-77.7596 54.4483-77.7596C54.2094-77.7596 54.0262-77.7471 53.7887-77.7132L60.2446-83.5852C61.6794-84.9167 62.5737-86.5558 62.5737-88.942C62.5737-93.6181 58.8652-97.3941 54.2583-97.3941C52.0272-97.3941 50.1592-96.6085 48.6099-94.9909L28.8756-74.838C27.1518-73.0571 26.1955-70.9564 26.1955-68.6844C26.1955-66.2866 27.0895-64.2537 28.8756-62.4679L48.6097-42.337C50.1073-40.8448 52.0266-40.0592 54.2586-40.0592C58.8655-40.0592 62.5737-43.7668 62.5737-48.3859C62.5737-50.7666 61.6278-52.3543 60.2391-53.7375L53.4056-60.4329C53.7312-60.4766 54.0757-60.4839 54.4483-60.4839C70.1338-60.4839 82.8928-47.725 82.8928-32.0395C82.8928-16.3539 70.1338-3.60018 54.4483-3.60018C38.7628-3.60018 26.0035-16.3539 26.0035-32.0395C26.0035-37.3595 22.3746-40.8962 17.4081-40.8962C12.3738-40.8962 8.72266-37.3595 8.72266-32.034C8.72266-6.78488 29.1937 13.6917 54.4483 13.6917C79.7026 13.6917 100.174-6.78488 100.174-32.034Z"/>
  </g>
  <g id="Heavy-M" transform="matrix(1 0 0 1 2582.86 1126)">
   <path class="SFSymbolsPreviewWireframe" d="M98.9388-31.9331C98.9388-56.8533 78.7509-77.0412 53.8307-77.0412C52.9475-77.0412 52.1193-76.9601 51.3463-76.8089L59.3427-84.3522C60.5979-85.553 61.3716-87.0375 61.3716-89.11C61.3716-93.2058 58.1448-96.5136 54.1164-96.5136C52.1232-96.5136 50.4687-95.8107 49.1285-94.3964L29.308-74.1798C27.8023-72.6306 26.964-70.7761 26.964-68.7908C26.964-66.69 27.74-64.9142 29.308-63.344L49.1308-43.1931C50.4438-41.8965 52.1277-41.1936 54.1141-41.1936C58.1425-41.1936 61.3716-44.4273 61.3716-48.4794C61.3716-50.5356 60.5707-51.9906 59.3263-53.2186L50.6595-61.7484C51.5906-61.9415 52.6719-62.0039 53.8307-62.0039C70.411-62.0039 83.8851-48.5298 83.8851-31.9496C83.8851-15.3693 70.411-1.9139 53.8307-1.9139C37.2505-1.9139 23.7786-15.3693 23.7786-31.9496C23.7786-36.5789 20.6565-39.6795 16.3217-39.6795C11.9082-39.6795 8.72266-36.5789 8.72266-31.9331C8.72266-7.03164 28.9128 13.1749 53.8307 13.1749C78.7509 13.1749 98.9388-7.03164 98.9388-31.9331Z"/>
  </g>
  <g id="Bold-M" transform="matrix(1 0 0 1 2286.84 1126)">
   <path class="SFSymbolsPreviewWireframe" d="M97.5571-31.8204C97.5571-56.3668 77.6863-76.2376 53.1399-76.2376C51.536-76.2376 49.9862-76.0799 48.6141-75.7974L58.3338-85.2102C59.3881-86.2647 60.0269-87.5763 60.0269-89.298C60.0269-92.7445 57.3388-95.5287 53.9576-95.5287C52.2305-95.5287 50.8149-94.9183 49.7087-93.7314L29.7916-73.4435C28.53-72.1534 27.8237-70.5744 27.8237-68.9098C27.8237-67.1412 28.4677-65.6531 29.7916-64.3241L49.7138-44.1507C50.8202-43.073 52.2408-42.4627 53.9525-42.4627C57.3337-42.4627 60.0269-45.1661 60.0269-48.5841C60.0269-50.2772 59.3881-51.5838 58.3051-52.6381L47.5877-63.2199C49.1961-63.5802 51.1016-63.7042 53.1399-63.7042C70.721-63.7042 84.9951-49.4301 84.9951-31.849C84.9951-14.2679 70.721-0.0275445 53.1399-0.0275445C35.5588-0.0275445 21.2898-14.2679 21.2898-31.849C21.2898-35.7056 18.7345-38.3184 15.1064-38.3184C11.3873-38.3184 8.72266-35.7056 8.72266-31.8204C8.72266-7.30768 28.5986 12.5969 53.1399 12.5969C77.6863 12.5969 97.5571-7.30768 97.5571-31.8204Z"/>
  </g>
  <g id="Semibold-M" transform="matrix(1 0 0 1 1990.6 1126)">
   <path class="SFSymbolsPreviewWireframe" d="M96.6046-31.7426C96.6046-56.0314 76.9524-75.6836 52.6636-75.6836C50.5628-75.6836 48.5157-75.473 46.7306-75.1L57.6382-85.8018C58.554-86.7553 59.0999-87.9478 59.0999-89.4276C59.0999-92.4266 56.7832-94.8497 53.8481-94.8497C52.3046-94.8497 51.0536-94.3031 50.1086-93.2729L30.1251-72.9359C29.0317-71.8244 28.4164-70.4354 28.4164-68.9919C28.4164-67.4522 28.9694-66.1625 30.1251-64.9998L50.1157-44.8109C51.0796-43.8841 52.3188-43.3375 53.841-43.3375C56.7761-43.3375 59.0999-45.6755 59.0999-48.6562C59.0999-50.099 58.5729-51.3033 57.6012-52.238L45.47-64.2344C47.5453-64.7099 50.019-64.8764 52.6636-64.8764C70.9347-64.8764 85.7603-50.0508 85.7603-31.7797C85.7603-13.5085 70.9347 1.27289 52.6636 1.27289C34.3925 1.27289 19.574-13.5085 19.574-31.7797C19.574-35.1036 17.4095-37.38 14.2685-37.38C11.0283-37.38 8.72266-35.1036 8.72266-31.7426C8.72266-7.49798 28.382 12.1984 52.6636 12.1984C76.9524 12.1984 96.6046-7.49798 96.6046-31.7426Z"/>
  </g>
  <g id="Medium-M" transform="matrix(1 0 0 1 1694.25 1126)">
   <path class="SFSymbolsPreviewWireframe" d="M95.8824-31.6837C95.8824-55.7771 76.3959-75.2635 52.3025-75.2635C49.8249-75.2635 47.4007-75.0128 45.3024-74.5712L57.1108-86.2503C57.9216-87.1274 58.397-88.2295 58.397-89.5259C58.397-92.1854 56.3619-94.3348 53.7651-94.3348C52.3607-94.3348 51.2346-93.8366 50.4119-92.9253L30.3779-72.5511C29.4121-71.575 28.8658-70.33 28.8658-69.0541C28.8658-67.6881 29.3498-66.5488 30.3779-65.5121L50.4205-45.3115C51.2764-44.4991 52.3779-44.0009 53.7565-44.0009C56.3533-44.0009 58.397-46.0617 58.397-48.7109C58.397-49.9639 57.9548-51.0906 57.0674-51.9346L43.8643-65.0036C46.2936-65.5665 49.1981-65.7652 52.3025-65.7652C71.0968-65.7652 86.3406-50.5214 86.3406-31.7271C86.3406-12.9328 71.0968 2.25894 52.3025 2.25894C33.5082 2.25894 18.2731-12.9328 18.2731-31.7271C18.2731-34.6472 16.4048-36.6685 13.6333-36.6685C10.756-36.6685 8.72266-34.6472 8.72266-31.6837C8.72266-7.64228 28.2177 11.8962 52.3025 11.8962C76.3959 11.8962 95.8824-7.64228 95.8824-31.6837Z"/>
  </g>
  <g id="Regular-M" transform="matrix(1 0 0 1 1398.01 1126)">
   <path class="SFSymbolsPreviewWireframe" d="M94.9403-31.6068C94.9403-55.4454 75.6701-74.7156 51.8315-74.7156C48.8625-74.7156 45.9463-74.4126 43.4395-73.8815L56.4229-86.8353C57.0967-87.6126 57.4801-88.5969 57.4801-89.6541C57.4801-91.871 55.8124-93.6632 53.6569-93.6632C52.4339-93.6632 51.4707-93.2281 50.8074-92.4719L30.7077-72.0491C29.9083-71.2496 29.452-70.1925 29.452-69.1353C29.452-67.9957 29.8459-67.0526 30.7077-66.1803L50.818-45.9645C51.533-45.3012 52.455-44.8661 53.6463-44.8661C55.8019-44.8661 57.4801-46.5654 57.4801-48.7823C57.4801-49.7877 57.1485-50.8132 56.3712-51.5388L41.7699-66.007C44.661-66.6838 48.1274-66.9244 51.8315-66.9244C71.3082-66.9244 87.0974-51.1353 87.0974-31.6585C87.0974-12.1818 71.3082 3.54509 51.8315 3.54509C32.3548 3.54509 16.5761-12.1818 16.5761-31.6585C16.5761-34.0517 15.0944-35.7405 12.8046-35.7405C10.4009-35.7405 8.72266-34.0517 8.72266-31.6068C8.72266-7.83049 28.0035 11.5021 51.8315 11.5021C75.6701 11.5021 94.9403-7.83049 94.9403-31.6068Z"/>
  </g>
  <g id="Light-M" transform="matrix(1 0 0 1 1101.92 1126)">
   <path class="SFSymbolsPreviewWireframe" d="M93.7083-31.7437C93.7083-55.24 74.7119-74.2365 51.2155-74.2365C47.2712-74.2365 43.4652-73.7453 40.5307-73.0602L55.9781-88.6319C56.5321-89.2553 56.8299-90.0171 56.8299-90.869C56.8299-92.5383 55.59-93.9028 53.8793-93.9028C52.8959-93.9028 52.1893-93.5703 51.663-93.0023L30.8959-71.7924C30.1136-71.0101 29.7258-70.1583 29.7258-69.3064C29.7258-68.4406 30.0513-67.6857 30.8959-66.8134L51.6906-45.7421C52.2516-45.2157 52.9512-44.8832 53.8517-44.8832C55.5623-44.8832 56.8299-46.2061 56.8299-47.8754C56.8299-48.6926 56.5667-49.4615 55.9434-50.0501L39.0834-66.9652C42.4194-67.8302 46.7585-68.2591 51.2155-68.2591C71.3595-68.2591 87.6963-51.9224 87.6963-31.7783C87.6963-11.6343 71.3595 4.64019 51.2155 4.64019C31.0714 4.64019 14.7624-11.6343 14.7624-31.7783C14.7624-33.6069 13.6057-34.9021 11.8464-34.9021C9.99021-34.9021 8.72266-33.6069 8.72266-31.7437C8.72266-8.30959 27.7468 10.7492 51.2155 10.7492C74.7119 10.7492 93.7083-8.30959 93.7083-31.7437Z"/>
  </g>
  <g id="Thin-M" transform="matrix(1 0 0 1 806.021 1126)">
   <path class="SFSymbolsPreviewWireframe" d="M92.0789-31.9247C92.0789-54.9685 73.4446-73.6028 50.4008-73.6028C45.1665-73.6028 40.1837-72.8627 36.6835-71.9739L55.3897-91.0082C55.7853-91.4278 55.9699-91.8955 55.9699-92.4758C55.9699-93.4209 55.2958-94.2196 54.1735-94.2196C53.5069-94.2196 53.1398-94.0229 52.7945-93.7039L31.1448-71.4529C30.3852-70.6933 30.0879-70.113 30.0879-69.5327C30.0879-69.029 30.3228-68.523 31.1448-67.6508L52.8448-45.4479C53.2021-45.1025 53.6075-44.9059 54.1232-44.9059C55.2455-44.9059 55.9699-45.7309 55.9699-46.676C55.9699-47.2443 55.7973-47.6737 55.3776-48.0813L35.5304-68.2325C39.4548-69.3465 44.9481-70.0243 50.4008-70.0243C71.4274-70.0243 88.4884-52.9634 88.4884-31.9367C88.4884-10.9101 71.4274 6.08855 50.4008 6.08855C29.3742 6.08855 12.3635-10.9101 12.3635-31.9367C12.3635-33.0185 11.6369-33.7932 10.5791-33.7932C9.44708-33.7932 8.72266-33.0185 8.72266-31.9247C8.72266-8.94325 27.4073 9.75344 50.4008 9.75344C73.4446 9.75344 92.0789-8.94325 92.0789-31.9247Z"/>
  </g>
  <g id="Ultralight-M" transform="matrix(1 0 0 1 509.728 1126)">
   <path class="SFSymbolsPreviewWireframe" d="M91.2444-32.0174C91.2444-54.8294 72.7954-73.2783 49.9835-73.2783C44.0886-73.2783 38.503-72.4107 34.7129-71.4176L55.0883-92.2252C55.4028-92.5406 55.5295-92.8576 55.5295-93.2987C55.5295-93.8729 55.1451-94.3819 54.3242-94.3819C53.8199-94.3819 53.6267-94.2548 53.3741-94.0632L31.2723-71.2791C30.5242-70.531 30.2733-70.0898 30.2733-69.6486C30.2733-69.3304 30.4619-68.9519 31.2723-68.0796L53.436-45.2972C53.689-45.0446 53.9437-44.9175 54.2623-44.9175C55.0832-44.9175 55.5295-45.4875 55.5295-46.0617C55.5295-46.5024 55.4032-46.758 55.0879-47.0728L33.7106-68.8816C37.9364-70.1231 44.0208-70.9284 49.9835-70.9284C71.4622-70.9284 88.8941-53.4966 88.8941-32.0179C88.8941-10.5392 71.4622 6.83039 49.9835 6.83039C28.5048 6.83039 11.1348-10.5392 11.1348-32.0179C11.1348-32.7171 10.6284-33.2252 9.93001-33.2252C9.16889-33.2252 8.72266-32.7171 8.72266-32.0174C8.72266-9.26781 27.2335 9.24342 49.9835 9.24342C72.7954 9.24342 91.2444-9.26781 91.2444-32.0174Z"/>
  </g>
  <g id="Black-S" transform="matrix(1 0 0 1 2890.58 696)">
   <path class="SFSymbolsPreviewWireframe" d="M78.8086-32.7637C78.8086-52.6367 62.6953-68.75 42.8223-68.75C42.7734-68.75 42.7734-68.75 42.7246-68.75L47.4609-72.998C48.6328-74.0723 49.3652-75.3906 49.3652-77.3438C49.3652-81.1523 46.3379-84.2285 42.5781-84.2285C40.7715-84.2285 39.2578-83.5938 37.9883-82.2754L22.5098-66.4551C21.0938-64.9902 20.3125-63.2812 20.3125-61.4258C20.3125-59.4727 21.0449-57.8125 22.5098-56.3477L37.9883-40.5273C39.209-39.3066 40.7715-38.6719 42.5781-38.6719C46.3379-38.6719 49.3652-41.6992 49.3652-45.459C49.3652-47.4121 48.584-48.6816 47.4609-49.8047L42.5293-54.6387C42.627-54.6387 42.7246-54.6387 42.8223-54.6387C54.8828-54.6387 64.6973-44.8242 64.6973-32.7637C64.6973-20.7031 54.8828-10.8887 42.8223-10.8887C30.7617-10.8887 20.9473-20.7031 20.9473-32.7637C20.9473-37.1094 17.9688-39.9902 13.916-39.9902C9.81445-39.9902 6.83594-37.1094 6.83594-32.7637C6.83594-12.8906 22.9492 3.22266 42.8223 3.22266C62.6953 3.22266 78.8086-12.8906 78.8086-32.7637Z"/>
  </g>
  <g id="Heavy-S" transform="matrix(1 0 0 1 2594.32 696)">
   <path class="SFSymbolsPreviewWireframe" d="M77.9097-32.66C77.9097-52.291 62.0038-68.1968 42.3728-68.1968C41.8976-68.1968 41.4596-68.1623 41.0075-68.0816L46.7464-73.4245C47.78-74.4065 48.4202-75.6211 48.4202-77.3322C48.4202-80.7144 45.7501-83.4449 42.4283-83.4449C40.7945-83.4449 39.4307-82.8677 38.3225-81.6992L22.8555-65.925C21.6239-64.656 20.9348-63.1314 20.9348-61.4949C20.9348-59.7608 21.575-58.2965 22.8555-57.0161L38.3225-41.288C39.4049-40.2171 40.7945-39.6399 42.4283-39.6399C45.7501-39.6399 48.4202-42.31 48.4202-45.6549C48.4202-47.3545 47.7542-48.5433 46.7349-49.5511L40.524-55.6413C41.0827-55.745 41.6989-55.7681 42.3728-55.7681C55.1133-55.7681 65.4694-45.412 65.4694-32.6715C65.4694-19.931 55.1133-9.58641 42.3728-9.58641C29.6323-9.58641 19.2762-19.931 19.2762-32.6715C19.2762-36.4986 16.6895-39.0568 13.1093-39.0568C9.46872-39.0568 6.83594-36.4986 6.83594-32.66C6.83594-13.0404 22.7418 2.87692 42.3728 2.87692C62.0038 2.87692 77.9097-13.0404 77.9097-32.66Z"/>
  </g>
  <g id="Bold-S" transform="matrix(1 0 0 1 2298.11 696)">
   <path class="SFSymbolsPreviewWireframe" d="M76.9043-32.5439C76.9043-51.9043 61.2305-67.5781 41.8701-67.5781C40.918-67.5781 39.9902-67.5049 39.0869-67.334L45.9473-73.9014C46.8262-74.7803 47.3633-75.8789 47.3633-77.3193C47.3633-80.2246 45.0928-82.5684 42.2607-82.5684C40.8203-82.5684 39.624-82.0557 38.6963-81.0547L23.2422-65.332C22.2168-64.2822 21.6309-62.9639 21.6309-61.5723C21.6309-60.083 22.168-58.8379 23.2422-57.7637L38.6963-42.1387C39.624-41.2354 40.8203-40.7227 42.2607-40.7227C45.0928-40.7227 47.3633-42.9932 47.3633-45.874C47.3633-47.29 46.8262-48.3887 45.9229-49.2676L38.2812-56.7627C39.3555-56.9824 40.5518-57.0312 41.8701-57.0312C55.3711-57.0312 66.333-46.0693 66.333-32.5684C66.333-19.0674 55.3711-8.12988 41.8701-8.12988C28.3691-8.12988 17.4072-19.0674 17.4072-32.5684C17.4072-35.8154 15.2588-38.0127 12.207-38.0127C9.08203-38.0127 6.83594-35.8154 6.83594-32.5439C6.83594-13.208 22.5098 2.49023 41.8701 2.49023C61.2305 2.49023 76.9043-13.208 76.9043-32.5439Z"/>
  </g>
  <g id="Semibold-S" transform="matrix(1 0 0 1 2001.74 696)">
   <path class="SFSymbolsPreviewWireframe" d="M76.2111-32.464C76.2111-51.6377 60.6973-67.1516 41.5235-67.1516C40.2426-67.1516 38.9771-67.0517 37.7628-66.8186L45.3963-74.2302C46.1686-75.038 46.6346-76.0566 46.6346-77.3104C46.6346-79.8869 44.6396-81.9641 42.1452-81.9641C40.8381-81.9641 39.7573-81.4958 38.954-80.6104L23.5088-64.9232C22.6256-64.0245 22.1107-62.8483 22.1107-61.6256C22.1107-60.3052 22.5768-59.2111 23.5088-58.2791L38.954-42.7252C39.7751-41.9374 40.8381-41.4691 42.1452-41.4691C44.6396-41.4691 46.6346-43.4642 46.6346-46.0251C46.6346-47.2456 46.1863-48.282 45.363-49.0721L36.735-57.5358C38.1646-57.8355 39.7608-57.9021 41.5235-57.9021C55.5488-57.9021 66.9284-46.5226 66.9284-32.4973C66.9284-18.472 55.5488-7.12568 41.5235-7.12568C27.4982-7.12568 16.1187-18.472 16.1187-32.4973C16.1187-35.3444 14.2724-37.2929 11.585-37.2929C8.81543-37.2929 6.83594-35.3444 6.83594-32.464C6.83594-13.3235 22.3498 2.22363 41.5235 2.22363C60.6973 2.22363 76.2111-13.3235 76.2111-32.464Z"/>
  </g>
  <g id="Medium-S" transform="matrix(1 0 0 1 1705.29 696)">
   <path class="SFSymbolsPreviewWireframe" d="M75.6855-32.4033C75.6855-51.4355 60.293-66.8281 41.2607-66.8281C39.7305-66.8281 38.209-66.708 36.7588-66.4277L44.9785-74.4795C45.6699-75.2334 46.082-76.1914 46.082-77.3037C46.082-79.6309 44.2959-81.5059 42.0576-81.5059C40.8516-81.5059 39.8584-81.0713 39.1494-80.2734L23.7109-64.6133C22.9355-63.8291 22.4746-62.7607 22.4746-61.666C22.4746-60.4736 22.8867-59.4941 23.7109-58.6699L39.1494-43.1699C39.8896-42.4697 40.8516-42.0352 42.0576-42.0352C44.2959-42.0352 46.082-43.8213 46.082-46.1396C46.082-47.2119 45.7012-48.2012 44.9385-48.9238L35.5625-58.1221C37.2617-58.4824 39.1611-58.5625 41.2607-58.5625C55.6836-58.5625 67.3799-46.8662 67.3799-32.4434C67.3799-18.0205 55.6836-6.36426 41.2607-6.36426C26.8379-6.36426 15.1416-18.0205 15.1416-32.4434C15.1416-34.9873 13.5244-36.7471 11.1133-36.7471C8.61328-36.7471 6.83594-34.9873 6.83594-32.4033C6.83594-13.4111 22.2285 2.02148 41.2607 2.02148C60.293 2.02148 75.6855-13.4111 75.6855-32.4033Z"/>
  </g>
  <g id="Regular-S" transform="matrix(1 0 0 1 1408.93 696)">
   <path class="SFSymbolsPreviewWireframe" d="M75-32.3242C75-51.1719 59.7656-66.4062 40.918-66.4062C39.0625-66.4062 37.207-66.2598 35.4492-65.918L44.4336-74.8047C45.0195-75.4883 45.3613-76.3672 45.3613-77.2949C45.3613-79.2969 43.8477-80.9082 41.9434-80.9082C40.8691-80.9082 39.9902-80.5176 39.4043-79.834L23.9746-64.209C23.3398-63.5742 22.9492-62.6465 22.9492-61.7188C22.9492-60.6934 23.291-59.8633 23.9746-59.1797L39.4043-43.75C40.0391-43.1641 40.8691-42.7734 41.9434-42.7734C43.8477-42.7734 45.3613-44.2871 45.3613-46.2891C45.3613-47.168 45.0684-48.0957 44.3848-48.7305L34.0332-58.8867C36.084-59.3262 38.3789-59.4238 40.918-59.4238C55.8594-59.4238 67.9688-47.3145 67.9688-32.373C67.9688-17.4316 55.8594-5.37109 40.918-5.37109C25.9766-5.37109 13.8672-17.4316 13.8672-32.373C13.8672-34.5215 12.5488-36.0352 10.498-36.0352C8.34961-36.0352 6.83594-34.5215 6.83594-32.3242C6.83594-13.5254 22.0703 1.75781 40.918 1.75781C59.7656 1.75781 75-13.5254 75-32.3242Z"/>
  </g>
  <g id="Light-S" transform="matrix(1 0 0 1 1112.76 696)">
   <path class="SFSymbolsPreviewWireframe" d="M73.9102-32.4453C73.9102-50.9902 58.918-65.9824 40.3731-65.9824C37.6548-65.9824 35.0122-65.6694 32.876-65.1914L44.04-76.394C44.52-76.9414 44.7861-77.6235 44.7861-78.3696C44.7861-79.8872 43.6509-81.1201 42.1401-81.1201C41.2778-81.1201 40.626-80.8203 40.1611-80.3032L24.1411-63.9819C23.5215-63.3623 23.1914-62.6162 23.1914-61.8701C23.1914-61.0869 23.4727-60.4233 24.1411-59.7397L40.1763-43.5532C40.6748-43.0884 41.3081-42.7886 42.125-42.7886C43.6357-42.7886 44.7861-43.9692 44.7861-45.4868C44.7861-46.1992 44.5537-46.8999 44.0064-47.4136L31.6568-59.7344C34.1011-60.3403 37.168-60.6045 40.3731-60.6045C55.9048-60.6045 68.4985-48.0107 68.4985-32.479C68.4985-16.9473 55.9048-4.40235 40.3731-4.40235C24.8413-4.40235 12.2627-16.9473 12.2627-32.479C12.2627-34.1279 11.2319-35.2935 9.6504-35.2935C7.98633-35.2935 6.83594-34.1279 6.83594-32.4453C6.83594-13.9492 21.8433 1.0918 40.3731 1.0918C58.918 1.0918 73.9102-13.9492 73.9102-32.4453Z"/>
  </g>
  <g id="Thin-S" transform="matrix(1 0 0 1 816.77 696)">
   <path class="SFSymbolsPreviewWireframe" d="M72.4688-32.6055C72.4688-50.75 57.7969-65.4219 39.6524-65.4219C35.793-65.4219 32.1094-64.8887 29.4727-64.2305L43.5195-78.4961C43.8594-78.8633 44.0254-79.2851 44.0254-79.791C44.0254-80.668 43.3906-81.4004 42.4004-81.4004C41.8184-81.4004 41.4668-81.2207 41.1621-80.9238L24.3613-63.6816C23.7617-63.082 23.5117-62.5762 23.5117-62.0703C23.5117-61.6074 23.7129-61.1641 24.3613-60.4805L41.1973-43.293C41.5156-42.9883 41.8887-42.8086 42.3652-42.8086C43.3555-42.8086 44.0254-43.5488 44.0254-44.4258C44.0254-44.918 43.8731-45.3184 43.5059-45.6719L28.5137-60.8555C31.4786-61.6816 35.5664-62.166 39.6524-62.166C55.9648-62.166 69.1992-48.9316 69.1992-32.6191C69.1992-16.3066 55.9648-3.12111 39.6524-3.12111C23.3399-3.12111 10.1407-16.3066 10.1407-32.6191C10.1407-33.6074 9.49026-34.3125 8.52931-34.3125C7.50587-34.3125 6.83594-33.6074 6.83594-32.6055C6.83594-14.5098 21.543 0.21095 39.6524 0.21095C57.7969 0.21095 72.4688-14.5098 72.4688-32.6055Z"/>
  </g>
  <g id="Ultralight-S" transform="matrix(1 0 0 1 520.428 696)">
   <path class="SFSymbolsPreviewWireframe" d="M71.7305-32.6875C71.7305-50.627 57.2227-65.1348 39.2832-65.1348C34.8394-65.1348 30.6226-64.4888 27.7296-63.7383L43.2529-79.5727C43.521-79.8476 43.6358-80.1362 43.6358-80.519C43.6358-81.0679 43.2573-81.5439 42.5337-81.5439C42.0952-81.5439 41.8974-81.4258 41.6748-81.2417L24.4741-63.5278C23.8848-62.9385 23.6758-62.5557 23.6758-62.1728C23.6758-61.874 23.8359-61.5434 24.4741-60.8599L41.7202-43.1597C41.9463-42.937 42.186-42.8188 42.4883-42.8188C43.2119-42.8188 43.6358-43.3335 43.6358-43.8823C43.6358-44.2617 43.5244-44.5083 43.2495-44.7798L26.9039-61.4297C30.1353-62.3686 34.7461-62.9658 39.2832-62.9658C55.9956-62.9658 69.5581-49.4033 69.5581-32.6909C69.5581-15.9785 55.9956-2.46487 39.2832-2.46487C22.5708-2.46487 9.05375-15.9785 9.05375-32.6909C9.05375-33.3408 8.59818-33.8101 7.9551-33.8101C7.25977-33.8101 6.83594-33.3408 6.83594-32.6875C6.83594-14.7969 21.3892-0.240219 39.2832-0.240219C57.2227-0.240219 71.7305-14.7969 71.7305-32.6875Z"/>
  </g>
 </g>
</svg>
