<?xml version="1.0" encoding="UTF-8"?>
<!--Generator: Apple Native CoreSVG 232.5-->
<!DOCTYPE svg
PUBLIC "-//W3C//DTD SVG 1.1//EN"
       "http://www.w3.org/Graphics/SVG/1.1/DTD/svg11.dtd">
<svg version="1.1" xmlns="http://www.w3.org/2000/svg" xmlns:xlink="http://www.w3.org/1999/xlink" width="3300" height="2200">
 <!--glyph: "uni100253.medium", point size: 100.0, font version: "19.2d2e1", template writer version: "128"-->
 <style>.SFSymbolsPreviewWireframe {fill:none;opacity:1.0;stroke:black;stroke-width:0.5}
</style>
 <g id="Notes">
  <rect height="2200" id="artboard" style="fill:white;opacity:1" width="3300" x="0" y="0"/>
  <line style="fill:none;stroke:black;opacity:1;stroke-width:0.5;" x1="263" x2="3036" y1="292" y2="292"/>
  <text style="stroke:none;fill:black;font-family:sans-serif;font-size:13;font-weight:bold;" transform="matrix(1 0 0 1 263 322)">Weight/Scale Variations</text>
  <text style="stroke:none;fill:black;font-family:sans-serif;font-size:13;text-anchor:middle;" transform="matrix(1 0 0 1 559.711 322)">Ultralight</text>
  <text style="stroke:none;fill:black;font-family:sans-serif;font-size:13;text-anchor:middle;" transform="matrix(1 0 0 1 856.422 322)">Thin</text>
  <text style="stroke:none;fill:black;font-family:sans-serif;font-size:13;text-anchor:middle;" transform="matrix(1 0 0 1 1153.13 322)">Light</text>
  <text style="stroke:none;fill:black;font-family:sans-serif;font-size:13;text-anchor:middle;" transform="matrix(1 0 0 1 1449.84 322)">Regular</text>
  <text style="stroke:none;fill:black;font-family:sans-serif;font-size:13;text-anchor:middle;" transform="matrix(1 0 0 1 1746.56 322)">Medium</text>
  <text style="stroke:none;fill:black;font-family:sans-serif;font-size:13;text-anchor:middle;" transform="matrix(1 0 0 1 2043.27 322)">Semibold</text>
  <text style="stroke:none;fill:black;font-family:sans-serif;font-size:13;text-anchor:middle;" transform="matrix(1 0 0 1 2339.98 322)">Bold</text>
  <text style="stroke:none;fill:black;font-family:sans-serif;font-size:13;text-anchor:middle;" transform="matrix(1 0 0 1 2636.69 322)">Heavy</text>
  <text style="stroke:none;fill:black;font-family:sans-serif;font-size:13;text-anchor:middle;" transform="matrix(1 0 0 1 2933.4 322)">Black</text>
  <line style="fill:none;stroke:black;opacity:1;stroke-width:0.5;" x1="263" x2="3036" y1="1903" y2="1903"/>
  <g transform="matrix(0.2 0 0 0.2 263 1933)">
   <path d="m46.2402 4.15039c21.5332 0 39.4531-17.8711 39.4531-39.4043s-17.9688-39.4043-39.502-39.4043c-21.4844 0-39.3555 17.8711-39.3555 39.4043s17.9199 39.4043 39.4043 39.4043Zm0-7.42188c-17.7246 0-31.8848-14.209-31.8848-31.9824s14.1113-31.9824 31.8359-31.9824c17.7734 0 32.0312 14.209 32.0312 31.9824s-14.209 31.9824-31.9824 31.9824Zm-17.9688-31.9824c0 2.14844 1.51367 3.61328 3.75977 3.61328h10.498v10.5957c0 2.19727 1.46484 3.71094 3.61328 3.71094 2.24609 0 3.71094-1.51367 3.71094-3.71094v-10.5957h10.5957c2.19727 0 3.71094-1.46484 3.71094-3.61328 0-2.19727-1.51367-3.71094-3.71094-3.71094h-10.5957v-10.5469c0-2.24609-1.46484-3.75977-3.71094-3.75977-2.14844 0-3.61328 1.51367-3.61328 3.75977v10.5469h-10.498c-2.24609 0-3.75977 1.51367-3.75977 3.71094Z"/>
  </g>
  <g transform="matrix(0.2 0 0 0.2 281.506 1933)">
   <path d="m58.5449 14.5508c27.2461 0 49.8047-22.6074 49.8047-49.8047 0-27.2461-22.6074-49.8047-49.8535-49.8047-27.1973 0-49.7559 22.5586-49.7559 49.8047 0 27.1973 22.6074 49.8047 49.8047 49.8047Zm0-8.30078c-23.0469 0-41.4551-18.457-41.4551-41.5039s18.3594-41.5039 41.4062-41.5039 41.5527 18.457 41.5527 41.5039-18.457 41.5039-41.5039 41.5039Zm-22.6562-41.5039c0 2.39258 1.66016 4.00391 4.15039 4.00391h14.3555v14.4043c0 2.44141 1.66016 4.15039 4.05273 4.15039 2.44141 0 4.15039-1.66016 4.15039-4.15039v-14.4043h14.4043c2.44141 0 4.15039-1.61133 4.15039-4.00391 0-2.44141-1.70898-4.15039-4.15039-4.15039h-14.4043v-14.3555c0-2.49023-1.70898-4.19922-4.15039-4.19922-2.39258 0-4.05273 1.70898-4.05273 4.19922v14.3555h-14.3555c-2.49023 0-4.15039 1.70898-4.15039 4.15039Z"/>
  </g>
  <g transform="matrix(0.2 0 0 0.2 304.924 1933)">
   <path d="m74.8535 28.3203c34.8145 0 63.623-28.8086 63.623-63.5742 0-34.8145-28.8574-63.623-63.6719-63.623-34.7656 0-63.5254 28.8086-63.5254 63.623 0 34.7656 28.8086 63.5742 63.5742 63.5742Zm0-9.08203c-30.1758 0-54.4434-24.3164-54.4434-54.4922 0-30.2246 24.2188-54.4922 54.3945-54.4922 30.2246 0 54.541 24.2676 54.541 54.4922 0 30.1758-24.2676 54.4922-54.4922 54.4922Zm-28.8574-54.4922c0 2.58789 1.85547 4.39453 4.58984 4.39453h19.7266v19.7754c0 2.68555 1.85547 4.58984 4.44336 4.58984 2.68555 0 4.54102-1.85547 4.54102-4.58984v-19.7754h19.7754c2.68555 0 4.58984-1.80664 4.58984-4.39453 0-2.73438-1.85547-4.58984-4.58984-4.58984h-19.7754v-19.7266c0-2.73438-1.85547-4.63867-4.54102-4.63867-2.58789 0-4.44336 1.9043-4.44336 4.63867v19.7266h-19.7266c-2.73438 0-4.58984 1.85547-4.58984 4.58984Z"/>
  </g>
  <text style="stroke:none;fill:black;font-family:sans-serif;font-size:13;font-weight:bold;" transform="matrix(1 0 0 1 263 1953)">Design Variations</text>
  <text style="stroke:none;fill:black;font-family:sans-serif;font-size:13;" transform="matrix(1 0 0 1 263 1971)">Symbols are supported in up to nine weights and three scales.</text>
  <text style="stroke:none;fill:black;font-family:sans-serif;font-size:13;" transform="matrix(1 0 0 1 263 1989)">For optimal layout with text and other symbols, vertically align</text>
  <text style="stroke:none;fill:black;font-family:sans-serif;font-size:13;" transform="matrix(1 0 0 1 263 2007)">symbols with the adjacent text.</text>
  <line style="fill:none;stroke:#00AEEF;stroke-width:0.5;opacity:1.0;" x1="776" x2="776" y1="1919" y2="1933"/>
  <g transform="matrix(0.2 0 0 0.2 776 1933)">
   <path d="m16.5527 0.78125c2.58789 0 3.85742-0.976562 4.78516-3.71094l6.29883-17.2363h28.8086l6.29883 17.2363c0.927734 2.73438 2.19727 3.71094 4.73633 3.71094 2.58789 0 4.24805-1.5625 4.24805-4.00391 0-0.830078-0.146484-1.61133-0.537109-2.63672l-22.9004-60.9863c-1.12305-2.97852-3.125-4.49219-6.25-4.49219-3.02734 0-5.07812 1.46484-6.15234 4.44336l-22.9004 61.084c-0.390625 1.02539-0.537109 1.80664-0.537109 2.63672 0 2.44141 1.5625 3.95508 4.10156 3.95508Zm13.4766-28.3691 11.8652-32.8613h0.244141l11.8652 32.8613Z"/>
  </g>
  <line style="fill:none;stroke:#00AEEF;stroke-width:0.5;opacity:1.0;" x1="792.836" x2="792.836" y1="1919" y2="1933"/>
  <text style="stroke:none;fill:black;font-family:sans-serif;font-size:13;font-weight:bold;" transform="matrix(1 0 0 1 776 1953)">Margins</text>
  <text style="stroke:none;fill:black;font-family:sans-serif;font-size:13;" transform="matrix(1 0 0 1 776 1971)">Leading and trailing margins on the left and right side of each symbol</text>
  <text style="stroke:none;fill:black;font-family:sans-serif;font-size:13;" transform="matrix(1 0 0 1 776 1989)">can be adjusted by modifying the x-location of the margin guidelines.</text>
  <text style="stroke:none;fill:black;font-family:sans-serif;font-size:13;" transform="matrix(1 0 0 1 776 2007)">Modifications are automatically applied proportionally to all</text>
  <text style="stroke:none;fill:black;font-family:sans-serif;font-size:13;" transform="matrix(1 0 0 1 776 2025)">scales and weights.</text>
  <g transform="matrix(0.2 0 0 0.2 1289 1933)">
   <path d="m14.209 9.32617 8.49609 8.54492c4.29688 4.3457 9.22852 4.05273 13.8672-1.07422l53.4668-58.9355-4.83398-4.88281-53.0762 58.3984c-1.75781 2.00195-3.41797 2.49023-5.76172 0.146484l-5.85938-5.81055c-2.34375-2.29492-1.80664-4.00391 0.195312-5.81055l57.373-54.0039-4.88281-4.83398-57.959 54.4434c-4.93164 4.58984-5.32227 9.47266-1.02539 13.8184Zm32.0801-90.9668c-2.09961 2.05078-2.24609 4.93164-1.07422 6.88477 1.17188 1.80664 3.4668 2.97852 6.68945 2.14844 7.32422-1.70898 14.9414-2.00195 22.0703 2.68555l-2.92969 7.27539c-1.70898 4.15039-0.830078 7.08008 1.85547 9.81445l11.4746 11.5723c2.44141 2.44141 4.49219 2.53906 7.32422 2.05078l5.32227-0.976562 3.32031 3.36914-0.195312 2.7832c-0.195312 2.49023 0.439453 4.39453 2.88086 6.78711l3.80859 3.71094c2.39258 2.39258 5.46875 2.53906 7.8125 0.195312l14.5508-14.5996c2.34375-2.34375 2.24609-5.32227-0.146484-7.71484l-3.85742-3.80859c-2.39258-2.39258-4.24805-3.17383-6.64062-2.97852l-2.88086 0.244141-3.22266-3.17383 1.2207-5.61523c0.634766-2.83203-0.146484-5.0293-3.07617-7.95898l-10.9863-10.9375c-16.6992-16.6016-38.8672-16.2109-53.3203-1.75781Zm7.4707 1.85547c12.1582-8.88672 28.6133-7.37305 39.7461 3.75977l12.1582 12.0605c1.17188 1.17188 1.36719 2.09961 1.02539 3.80859l-1.61133 7.42188 7.51953 7.42188 4.93164-0.292969c1.26953-0.0488281 1.66016 0.0488281 2.63672 1.02539l2.88086 2.88086-12.207 12.207-2.88086-2.88086c-0.976562-0.976562-1.12305-1.36719-1.07422-2.68555l0.341797-4.88281-7.4707-7.42188-7.61719 1.26953c-1.61133 0.341797-2.34375 0.195312-3.56445-0.976562l-10.0098-10.0098c-1.26953-1.17188-1.41602-2.00195-0.634766-3.85742l4.39453-10.4492c-7.8125-7.27539-17.9688-10.4004-28.125-7.42188-0.78125 0.195312-1.07422-0.439453-0.439453-0.976562Z"/>
  </g>
  <text style="stroke:none;fill:black;font-family:sans-serif;font-size:13;font-weight:bold;" transform="matrix(1 0 0 1 1289 1953)">Exporting</text>
  <text style="stroke:none;fill:black;font-family:sans-serif;font-size:13;" transform="matrix(1 0 0 1 1289 1971)">Symbols should be outlined when exporting to ensure the</text>
  <text style="stroke:none;fill:black;font-family:sans-serif;font-size:13;" transform="matrix(1 0 0 1 1289 1989)">design is preserved when submitting to Xcode.</text>
  <text id="template-version" style="stroke:none;fill:black;font-family:sans-serif;font-size:13;text-anchor:end;" transform="matrix(1 0 0 1 3036 1933)">Template v.5.0</text>
  <text style="stroke:none;fill:black;font-family:sans-serif;font-size:13;text-anchor:end;" transform="matrix(1 0 0 1 3036 1951)">Requires Xcode 15 or greater</text>
  <text id="descriptive-name" style="stroke:none;fill:black;font-family:sans-serif;font-size:13;text-anchor:end;" transform="matrix(1 0 0 1 3036 1969)">Generated from arrowshape.turn.up.right.circle.fill</text>
  <text style="stroke:none;fill:black;font-family:sans-serif;font-size:13;text-anchor:end;" transform="matrix(1 0 0 1 3036 1987)">Typeset at 100.0 points</text>
  <text style="stroke:none;fill:black;font-family:sans-serif;font-size:13;" transform="matrix(1 0 0 1 263 726)">Small</text>
  <text style="stroke:none;fill:black;font-family:sans-serif;font-size:13;" transform="matrix(1 0 0 1 263 1156)">Medium</text>
  <text style="stroke:none;fill:black;font-family:sans-serif;font-size:13;" transform="matrix(1 0 0 1 263 1586)">Large</text>
 </g>
 <g id="Guides">
  <g id="H-reference" style="fill:#27AAE1;stroke:none;" transform="matrix(1 0 0 1 339 696)">
   <path d="M0.993654 0L3.63775 0L29.3281-67.1323L30.0303-67.1323L30.0303-70.459L28.1226-70.459ZM11.6885-24.4799L46.9815-24.4799L46.2315-26.7285L12.4385-26.7285ZM55.1196 0L57.7637 0L30.6382-70.459L29.4326-70.459L29.4326-67.1323Z"/>
  </g>
  <line id="Baseline-S" style="fill:none;stroke:#27AAE1;opacity:1;stroke-width:0.5;" x1="263" x2="3036" y1="696" y2="696"/>
  <line id="Capline-S" style="fill:none;stroke:#27AAE1;opacity:1;stroke-width:0.5;" x1="263" x2="3036" y1="625.541" y2="625.541"/>
  <g id="H-reference" style="fill:#27AAE1;stroke:none;" transform="matrix(1 0 0 1 339 1126)">
   <path d="M0.993654 0L3.63775 0L29.3281-67.1323L30.0303-67.1323L30.0303-70.459L28.1226-70.459ZM11.6885-24.4799L46.9815-24.4799L46.2315-26.7285L12.4385-26.7285ZM55.1196 0L57.7637 0L30.6382-70.459L29.4326-70.459L29.4326-67.1323Z"/>
  </g>
  <line id="Baseline-M" style="fill:none;stroke:#27AAE1;opacity:1;stroke-width:0.5;" x1="263" x2="3036" y1="1126" y2="1126"/>
  <line id="Capline-M" style="fill:none;stroke:#27AAE1;opacity:1;stroke-width:0.5;" x1="263" x2="3036" y1="1055.54" y2="1055.54"/>
  <g id="H-reference" style="fill:#27AAE1;stroke:none;" transform="matrix(1 0 0 1 339 1556)">
   <path d="M0.993654 0L3.63775 0L29.3281-67.1323L30.0303-67.1323L30.0303-70.459L28.1226-70.459ZM11.6885-24.4799L46.9815-24.4799L46.2315-26.7285L12.4385-26.7285ZM55.1196 0L57.7637 0L30.6382-70.459L29.4326-70.459L29.4326-67.1323Z"/>
  </g>
  <line id="Baseline-L" style="fill:none;stroke:#27AAE1;opacity:1;stroke-width:0.5;" x1="263" x2="3036" y1="1556" y2="1556"/>
  <line id="Capline-L" style="fill:none;stroke:#27AAE1;opacity:1;stroke-width:0.5;" x1="263" x2="3036" y1="1485.54" y2="1485.54"/>
  <line id="left-margin-Regular-M" style="fill:none;stroke:#00AEEF;stroke-width:0.5;opacity:1.0;" x1="1391.32" x2="1391.32" y1="1030.79" y2="1150.12"/>
  <line id="right-margin-Regular-M" style="fill:none;stroke:#00AEEF;stroke-width:0.5;opacity:1.0;" x1="1508.37" x2="1508.37" y1="1030.79" y2="1150.12"/>
 </g>
 <g id="Symbols">
  <g id="Black-L" transform="matrix(1 0 0 1 2854.19 1556)">
   <path class="SFSymbolsPreviewWireframe" d="M79.1958 32.8061C116.56 32.8061 147.154 2.23301 147.154-35.1309C147.154-72.4948 116.539-103.068 79.175-103.068C41.8307-103.068 11.2588-72.4948 11.2588-35.1309C11.2588 2.23301 41.8515 32.8061 79.1958 32.8061ZM51.7937-6.35339C47.8313-6.35339 45.486-10.3093 45.486-18.4488C45.486-41.2121 56.7652-54.5021 77.1063-54.5021L77.4772-54.5021L77.4772-64.3187C77.4772-67.8463 80.2071-70.703 83.8943-70.703C86.0824-70.703 87.7876-69.844 90.2074-67.641L116.888-43.0264C118.282-41.7741 119.053-39.9457 119.053-38.1965C119.053-36.5642 118.28-34.6398 116.888-33.3083L90.2074-8.71046C87.9668-6.60753 86.1784-5.71092 83.8735-5.71092C80.2071-5.71092 77.4772-8.48432 77.4772-12.0119L77.4772-21.6526L77.1063-21.6526C67.1329-21.6526 61.8217-17.2049 58.2924-10.8667C56.452-7.55476 54.563-6.35339 51.7937-6.35339Z"/>
  </g>
  <g id="Heavy-L" transform="matrix(1 0 0 1 2558.42 1556)">
   <path class="SFSymbolsPreviewWireframe" d="M78.2532 31.8498C115.056 31.8498 145.278 1.65836 145.278-35.1447C145.278-71.9477 115.026-102.139 78.2231-102.139C41.4446-102.139 11.2588-71.9477 11.2588-35.1447C11.2588 1.65836 41.4748 31.8498 78.2532 31.8498ZM49.6612-6.56297C46.2254-6.56297 44.0202-9.94155 44.0202-16.8491C44.0202-40.425 55.3345-54.2632 76.7086-54.2632L77.2477-54.2632L77.2477-64.9496C77.2477-68.1672 79.7183-70.8011 83.0912-70.8011C85.1525-70.8011 86.7021-69.9691 88.9597-67.9057L115.881-42.9988C117.278-41.7388 117.966-40.0428 117.966-38.4215C117.966-36.8895 117.272-35.1344 115.881-33.7996L88.9597-8.87693C86.8819-6.91854 85.2115-6.07212 83.061-6.07212C79.7183-6.07212 77.2477-8.58522 77.2477-11.8029L77.2477-22.3789L76.7086-22.3789C65.8129-22.3789 59.7065-18.1373 55.5907-10.5998C53.9328-7.57083 52.1283-6.56297 49.6612-6.56297Z"/>
  </g>
  <g id="Bold-L" transform="matrix(1 0 0 1 2262.89 1556)">
   <path class="SFSymbolsPreviewWireframe" d="M77.0704 30.6515C113.182 30.6515 142.92 0.951291 142.92-35.1601C142.92-71.2714 113.144-100.972 77.0324-100.972C40.9458-100.972 11.2588-71.2714 11.2588-35.1601C11.2588 0.951291 40.9838 30.6515 77.0704 30.6515ZM47.0776-6.82417C44.2577-6.82417 42.2439-9.53285 42.2439-15.0009C42.2439-39.6354 53.7608-53.9264 76.1646-53.9264L76.9187-53.9264L76.9187-65.7035C76.9187-68.5369 79.0592-70.8867 82.0402-70.8867C83.9328-70.8867 85.2978-70.093 87.3258-68.2286L114.555-42.968C115.981-41.6779 116.57-40.1433 116.57-38.6758C116.57-37.2668 115.968-35.7118 114.555-34.3545L87.3258-9.0471C85.4702-7.28786 83.9532-6.50294 82.0022-6.50294C79.0592-6.50294 76.9187-8.70077 76.9187-11.5342L76.9187-23.2555L76.1646-23.2555C64.0794-23.2555 57.0192-19.1856 52.2927-10.3067C50.8578-7.62359 49.1906-6.82417 47.0776-6.82417Z"/>
  </g>
  <g id="Semibold-L" transform="matrix(1 0 0 1 1966.99 1556)">
   <path class="SFSymbolsPreviewWireframe" d="M76.2549 29.8254C111.889 29.8254 141.294 0.463842 141.294-35.1707C141.294-70.8053 111.846-100.167 76.2116-100.167C40.6019-100.167 11.2588-70.8053 11.2588-35.1707C11.2588 0.463842 40.6453 29.8254 76.2549 29.8254ZM45.2964-7.00424C42.9011-7.00424 41.0194-9.25109 41.0194-13.7267C41.0194-39.0911 52.6759-53.6942 75.7896-53.6942L76.6919-53.6942L76.6919-66.2232C76.6919-68.7918 78.6048-70.9458 81.3157-70.9458C83.092-70.9458 84.3297-70.1784 86.1994-68.4512L113.64-42.9467C115.087-41.6359 115.607-40.2125 115.607-38.8512C115.607-37.5269 115.068-36.1098 113.64-34.737L86.1994-9.16441C84.4969-7.54247 83.0858-6.79994 81.2723-6.79994C78.6048-6.79994 76.6919-8.78044 76.6919-11.349L76.6919-23.8599L75.7896-23.8599C62.8844-23.8599 55.1666-19.9083 50.0192-10.1046C48.7379-7.65997 47.1654-7.00424 45.2964-7.00424Z"/>
  </g>
  <g id="Medium-L" transform="matrix(1 0 0 1 1670.9 1556)">
   <path class="SFSymbolsPreviewWireframe" d="M75.6366 29.1991C110.91 29.1991 140.062 0.0942366 140.062-35.1788C140.062-70.4518 110.862-99.5566 75.5892-99.5566C40.3412-99.5566 11.2588-70.4518 11.2588-35.1788C11.2588 0.0942366 40.3886 29.1991 75.6366 29.1991ZM43.9459-7.14078C41.8725-7.14078 40.0909-9.03745 40.0909-12.7605C40.0909-38.6784 51.8533-53.5181 75.5053-53.5181L76.5199-53.5181L76.5199-66.6173C76.5199-68.9851 78.2602-70.9905 80.7664-70.9905C82.4545-70.9905 83.5956-70.2432 85.3453-68.62L112.946-42.9306C114.409-41.604 114.876-40.2651 114.876-38.9841C114.876-37.7242 114.386-36.4117 112.946-35.0271L85.3453-9.25336C83.759-7.73553 82.428-7.02514 80.7189-7.02514C78.2602-7.02514 76.5199-8.84084 76.5199-11.2086L76.5199-24.3182L75.5053-24.3182C61.9782-24.3182 53.7619-20.4563 48.2953-9.95136C47.1306-7.68755 45.6298-7.14078 43.9459-7.14078Z"/>
  </g>
  <g id="Regular-L" transform="matrix(1 0 0 1 1374.99 1556)">
   <path class="SFSymbolsPreviewWireframe" d="M74.8301 28.3821C109.632 28.3821 138.454-0.387857 138.454-35.1893C138.454-69.9907 109.579-98.7606 74.7774-98.7606C40.0011-98.7606 11.2588-69.9907 11.2588-35.1893C11.2588-0.387857 40.0538 28.3821 74.8301 28.3821ZM42.1844-7.31888C40.5309-7.31888 38.8799-8.75878 38.8799-11.5003C38.8799-38.1401 50.7803-53.2885 75.1344-53.2885L76.2956-53.2885L76.2956-67.1313C76.2956-69.2371 77.8108-71.0489 80.0498-71.0489C81.6229-71.0489 82.6381-70.3277 84.2312-68.8401L112.042-42.9096C113.524-41.5625 113.924-40.3336 113.924-39.1575C113.924-37.9814 113.497-36.8053 112.042-35.4054L84.2312-9.36939C82.7964-7.98734 81.5701-7.31888 79.997-7.31888C77.8108-7.31888 76.2956-8.91962 76.2956-11.0254L76.2956-24.9159L75.1344-24.9159C60.7963-24.9159 51.9297-21.1711 46.0467-9.75148C45.034-7.72353 43.6268-7.31888 42.1844-7.31888Z"/>
  </g>
  <g id="Light-L" transform="matrix(1 0 0 1 1079.2 1556)">
   <path class="SFSymbolsPreviewWireframe" d="M73.9141 27.466C108.257 27.466 136.603-0.845903 136.603-35.1893C136.603-69.5327 108.224-97.8445 73.8804-97.8445C39.5239-97.8445 11.2588-69.5327 11.2588-35.1893C11.2588-0.845903 39.5576 27.466 73.9141 27.466ZM40.7721-7.50973C39.3094-7.50973 37.9065-8.77787 37.9065-11.0804C37.9065-38.789 50.9711-52.7923 74.4282-52.7923L75.7803-52.7923L75.7803-67.4748C75.7803-69.3135 77.0092-70.8771 78.9619-70.8771C80.3442-70.8771 81.2831-70.2132 82.5326-69.031L110.61-42.9096C112.284-41.4098 112.626-40.2764 112.626-39.1766C112.626-38.0768 112.237-36.9771 110.61-35.4436L82.5326-9.25488C81.3841-8.14002 80.3105-7.50973 78.9283-7.50973C77.0092-7.50973 75.7803-8.93871 75.7803-10.7773L75.7803-25.374L74.4282-25.374C58.9641-25.374 49.6395-21.2093 44.0809-9.78965C43.2018-7.97163 42.1-7.50973 40.7721-7.50973Z"/>
  </g>
  <g id="Thin-L" transform="matrix(1 0 0 1 783.716 1556)">
   <path class="SFSymbolsPreviewWireframe" d="M72.7024 26.2544C106.44 26.2544 134.155-1.45171 134.155-35.1893C134.155-68.9269 106.432-96.6329 72.694-96.6329C38.8929-96.6329 11.2588-68.9269 11.2588-35.1893C11.2588-1.45171 38.9013 26.2544 72.7024 26.2544ZM38.9042-7.76215C37.6939-7.76215 36.6192-8.80311 36.6192-10.5251C36.6192-39.6472 51.2235-52.136 73.4943-52.136L75.0987-52.136L75.0987-67.9292C75.0987-69.4144 75.949-70.65 77.5231-70.65C78.653-70.65 79.4909-70.0617 80.2861-69.2834L108.717-42.9096C110.643-41.2078 110.91-40.2006 110.91-39.2018C110.91-38.2031 110.571-37.2043 108.717-35.4941L80.2861-9.10342C79.5162-8.34196 78.6445-7.76215 77.5147-7.76215C75.949-7.76215 75.0987-8.96395 75.0987-10.4492L75.0987-25.9798L73.4943-25.9798C56.5409-25.9798 46.6104-21.2598 41.481-9.84013C40.7786-8.29978 40.0807-7.76215 38.9042-7.76215Z"/>
  </g>
  <g id="Ultralight-L" transform="matrix(1 0 0 1 487.631 1556)">
   <path class="SFSymbolsPreviewWireframe" d="M72.0819 25.6338C105.509 25.6338 132.9-1.762 132.9-35.1893C132.9-68.6166 105.514-96.0124 72.0864-96.0124C38.5697-96.0124 11.2588-68.6166 11.2588-35.1893C11.2588-1.762 38.5652 25.6338 72.0819 25.6338ZM37.9474-7.89143C36.8665-7.89143 35.9598-8.81604 35.9598-10.2407C35.9598-40.0868 51.3528-51.7998 73.0159-51.7998L74.7496-51.7998L74.7496-68.1619C74.7496-69.4661 75.406-70.5336 76.7862-70.5336C77.7867-70.5336 78.573-69.9842 79.1355-69.4127L107.747-42.9096C109.803-41.1044 110.031-40.1618 110.031-39.2148C110.031-38.2677 109.718-37.3206 107.747-35.5199L79.1355-9.02585C78.5595-8.44539 77.7912-7.89143 76.7907-7.89143C75.406-7.89143 74.7496-8.97688 74.7496-10.2811L74.7496-26.2901L73.0159-26.2901C55.2997-26.2901 45.059-21.2856 40.1493-9.86599C39.5374-8.46785 39.0464-7.89143 37.9474-7.89143Z"/>
  </g>
  <g id="Black-M" transform="matrix(1 0 0 1 2871.36 1126)">
   <path class="SFSymbolsPreviewWireframe" d="M62.0422 18.1783C91.4096 18.1783 115.367-5.7739 115.367-35.1412C115.367-64.5086 91.4041-88.4608 62.0367-88.4608C32.6752-88.4608 8.72266-64.5086 8.72266-35.1412C8.72266-5.7739 32.6807 18.1783 62.0422 18.1783ZM41.7681-12.7037C38.2716-12.7037 36.3678-16.2414 36.3678-23.5466C36.3678-40.6289 45.2338-50.2989 59.9837-50.2989L60.1523-50.2989L60.1523-57.2705C60.1523-60.2337 62.4512-62.6047 65.5392-62.6047C67.3177-62.6047 68.762-61.9237 70.7296-60.1384L91.2293-41.2938C92.3323-40.3096 92.9925-38.7922 92.9925-37.3374C92.9925-35.9969 92.3326-34.3708 91.2293-33.324L70.7296-14.5255C68.8927-12.8082 67.4264-12.0757 65.5338-12.0757C62.4512-12.0757 60.1523-14.4247 60.1523-17.3879L60.1523-24.1488L59.9837-24.1488C52.8968-24.1488 49.4034-20.469 47.2171-16.5891C45.6525-13.8085 44.1579-12.7037 41.7681-12.7037Z"/>
  </g>
  <g id="Heavy-M" transform="matrix(1 0 0 1 2575.48 1126)">
   <path class="SFSymbolsPreviewWireframe" d="M61.2053 17.328C90.0667 17.328 113.704-6.29341 113.704-35.1547C113.704-64.016 90.0502-87.6374 61.1889-87.6374C32.3418-87.6374 8.72266-64.016 8.72266-35.1547C8.72266-6.29341 32.3582 17.328 61.2053 17.328ZM39.8137-12.891C36.8144-12.891 35.0246-15.8802 35.0246-22.0216C35.0246-39.7995 43.8176-50.1111 59.66-50.1111L59.9755-50.1111L59.9755-57.8555C59.9755-60.5403 62.0474-62.7165 64.8545-62.7165C66.5265-62.7165 67.8259-62.0566 69.6666-60.3796L90.3773-41.2668C91.4654-40.2891 92.0506-38.8924 92.0506-37.5556C92.0506-36.3061 91.4632-34.8385 90.3773-33.8007L69.6666-14.6988C67.9624-13.0982 66.5974-12.4111 64.8381-12.4111C62.0474-12.4111 59.9755-14.5216 59.9755-17.2064L59.9755-24.8165L59.66-24.8165C51.7755-24.8165 47.547-21.3769 44.7574-16.3247C43.3589-13.8013 41.9186-12.891 39.8137-12.891Z"/>
  </g>
  <g id="Bold-M" transform="matrix(1 0 0 1 2279.69 1126)">
   <path class="SFSymbolsPreviewWireframe" d="M60.2692 16.3767C88.5644 16.3767 111.844-6.87455 111.844-35.1698C111.844-63.465 88.5358-86.7163 60.2405-86.7163C31.9688-86.7163 8.72266-63.465 8.72266-35.1698C8.72266-6.87455 31.9974 16.3767 60.2692 16.3767ZM37.6275-13.1005C35.1843-13.1005 33.5222-15.476 33.5222-20.3157C33.5222-38.8718 42.2333-49.9011 59.2979-49.9011L59.7777-49.9011L59.7777-58.51C59.7777-60.8834 61.5956-62.8415 64.0885-62.8415C65.6415-62.8415 66.7787-62.2053 68.4775-60.6494L89.4242-41.2367C90.4957-40.2663 90.9969-39.0044 90.9969-37.7996C90.9969-36.652 90.4906-35.3616 89.4242-34.334L68.4775-14.8927C66.9217-13.4225 65.67-12.7864 64.0599-12.7864C61.5956-12.7864 59.7777-14.63 59.7777-17.0034L59.7777-25.5635L59.2979-25.5635C50.5212-25.5635 45.4703-22.3926 42.0058-16.029C40.7931-13.7933 39.4137-13.1005 37.6275-13.1005Z"/>
  </g>
  <g id="Semibold-M" transform="matrix(1 0 0 1 1983.62 1126)">
   <path class="SFSymbolsPreviewWireframe" d="M59.6238 15.7209C87.5288 15.7209 110.562-7.27519 110.562-35.1802C110.562-63.0852 87.4917-86.0813 59.5867-86.0813C31.7117-86.0813 8.72266-63.0852 8.72266-35.1802C8.72266-7.27519 31.7487 15.7209 59.6238 15.7209ZM36.1203-13.2449C34.0605-13.2449 32.4864-15.1974 32.4864-19.1396C32.4864-38.2322 41.1412-49.7563 59.0483-49.7563L59.6413-49.7563L59.6413-58.9611C59.6413-61.1199 61.2842-62.9276 63.5605-62.9276C65.0314-62.9276 66.0568-62.3077 67.6577-60.8353L88.7671-41.2159C89.8272-40.2505 90.2705-39.0816 90.2705-37.9679C90.2705-36.8905 89.8201-35.7223 88.7671-34.7017L67.6577-15.0263C66.2042-13.6462 65.0307-13.0452 63.5235-13.0452C61.2842-13.0452 59.6413-14.7047 59.6413-16.8635L59.6413-26.0784L59.0483-26.0784C49.6564-26.0784 44.0386-23.0927 40.1089-15.8251C39.0243-13.7878 37.6869-13.2449 36.1203-13.2449Z"/>
  </g>
  <g id="Medium-M" transform="matrix(1 0 0 1 1687.4 1126)">
   <path class="SFSymbolsPreviewWireframe" d="M59.1344 15.2237C86.7435 15.2237 109.59-7.57896 109.59-35.1881C109.59-62.7972 86.7001-85.5998 59.091-85.5998C31.5167-85.5998 8.72266-62.7972 8.72266-35.1881C8.72266-7.57896 31.5601 15.2237 59.1344 15.2237ZM34.9774-13.3544C33.2084-13.3544 31.701-14.9862 31.701-18.2479C31.701-37.7472 40.313-49.6465 58.859-49.6465L59.5379-49.6465L59.5379-59.3032C59.5379-61.2992 61.0481-62.993 63.1601-62.993C64.5688-62.993 65.5094-62.3854 67.0362-60.9764L88.2689-41.2001C89.3203-40.2385 89.7197-39.1401 89.7197-38.0954C89.7197-37.0713 89.3117-35.9958 88.2689-34.9804L67.0362-15.1277C65.6602-13.8157 64.5459-13.2413 63.1167-13.2413C61.0481-13.2413 59.5379-14.7614 59.5379-16.7574L59.5379-26.4688L58.859-26.4688C49.0007-26.4688 42.9531-23.6236 38.6706-15.6705C37.6831-13.7836 36.3775-13.3544 34.9774-13.3544Z"/>
  </g>
  <g id="Regular-M" transform="matrix(1 0 0 1 1391.32 1126)">
   <path class="SFSymbolsPreviewWireframe" d="M58.4961 14.5751C85.7192 14.5751 108.321-7.9752 108.321-35.1983C108.321-62.4215 85.6675-84.9718 58.4443-84.9718C31.2624-84.9718 8.72266-62.4215 8.72266-35.1983C8.72266-7.9752 31.3141 14.5751 58.4961 14.5751ZM33.4868-13.4972C32.097-13.4972 30.6765-14.7106 30.6765-17.0848C30.6765-37.1147 39.2329-49.5033 58.6122-49.5033L59.403-49.5033L59.403-59.7494C59.403-61.5331 60.7401-63.0782 62.6378-63.0782C63.9653-63.0782 64.7954-62.4868 66.2254-61.1603L87.619-41.1796C88.6591-40.2229 89.0013-39.2165 89.0013-38.2618C89.0013-37.3071 88.6486-36.3525 87.619-35.3441L66.2254-15.2598C64.9507-14.0368 63.9136-13.4972 62.5861-13.4972C60.7401-13.4972 59.403-14.8353 59.403-16.619L59.403-26.9781L58.6122-26.9781C48.1455-26.9781 41.5372-24.3161 36.7945-15.4689C35.9338-13.7781 34.6696-13.4972 33.4868-13.4972Z"/>
  </g>
  <g id="Light-M" transform="matrix(1 0 0 1 1095.44 1126)">
   <path class="SFSymbolsPreviewWireframe" d="M57.6748 13.7538C84.4872 13.7538 106.662-8.38586 106.662-35.1983C106.662-62.0108 84.4526-84.1504 57.6401-84.1504C30.8346-84.1504 8.72266-62.0108 8.72266-35.1983C8.72266-8.38586 30.8693 13.7538 57.6748 13.7538ZM32.2206-13.6683C31.0019-13.6683 29.8039-14.7278 29.8039-16.7083C29.8039-37.6965 39.404-49.0584 57.979-49.0584L58.941-49.0584L58.941-60.0574C58.941-61.6016 60.0214-62.9242 61.6625-62.9242C62.8189-62.9242 63.5805-62.3841 64.7025-61.3314L86.3357-41.1796C87.5469-40.086 87.8377-39.1652 87.8377-38.2789C87.8377-37.3927 87.5192-36.5065 86.3357-35.3783L64.7025-15.1572C63.6845-14.1737 62.7843-13.6683 61.6279-13.6683C60.0214-13.6683 58.941-14.8524 58.941-16.3965L58.941-27.3888L57.979-27.3888C46.5028-27.3888 39.4839-24.3503 35.0321-15.5031C34.2911-14.0005 33.3007-13.6683 32.2206-13.6683Z"/>
  </g>
  <g id="Thin-M" transform="matrix(1 0 0 1 799.828 1126)">
   <path class="SFSymbolsPreviewWireframe" d="M56.5885 12.6675C82.8578 12.6675 104.466-8.92899 104.466-35.1983C104.466-61.4677 82.8458-83.0642 56.5765-83.0642C30.2689-83.0642 8.72266-61.4677 8.72266-35.1983C8.72266-8.92899 30.2809 12.6675 56.5885 12.6675ZM30.5459-13.8946C29.5535-13.8946 28.6497-14.7504 28.6497-16.2105C28.6497-38.4659 39.6303-48.47 57.1417-48.47L58.33-48.47L58.33-60.4647C58.33-61.6921 59.0709-62.7205 60.3726-62.7205C61.3027-62.7205 61.9738-62.2483 62.6884-61.5577L84.6384-41.1796C86.0759-39.905 86.2989-39.0973 86.2989-38.3016C86.2989-37.5059 86.0256-36.7102 84.6384-35.4235L62.6884-15.0214C62.0098-14.3548 61.2907-13.8946 60.3606-13.8946C59.0709-13.8946 58.33-14.875 58.33-16.1023L58.33-27.9319L57.1417-27.9319C44.3303-27.9319 36.7682-24.3956 32.7011-15.5483C32.1186-14.2947 31.4903-13.8946 30.5459-13.8946Z"/>
  </g>
  <g id="Ultralight-M" transform="matrix(1 0 0 1 503.679 1126)">
   <path class="SFSymbolsPreviewWireframe" d="M56.0321 12.1111C82.0233 12.1111 103.342-9.20719 103.342-35.1983C103.342-61.1895 82.0228-82.5078 56.0317-82.5078C29.9791-82.5078 8.72266-61.1895 8.72266-35.1983C8.72266-9.20719 29.9795 12.1111 56.0321 12.1111ZM29.6882-14.0105C28.8117-14.0105 28.0586-14.762 28.0586-15.9554C28.0586-38.86 39.7462-48.1687 56.7128-48.1687L58.017-48.1687L58.017-60.6734C58.017-61.7385 58.5841-62.6162 59.7119-62.6162C60.526-62.6162 61.1508-62.1788 61.6568-61.6736L83.7691-41.1796C85.3225-39.8123 85.5106-39.0625 85.5106-38.3132C85.5106-37.5638 85.2606-36.8145 83.7691-35.4467L61.6568-14.9518C61.152-14.4475 60.5256-14.0105 59.7115-14.0105C58.5841-14.0105 58.017-14.8866 58.017-15.9517L58.017-28.2101L56.7128-28.2101C43.2175-28.2101 35.3773-24.4188 31.5072-15.5715C31.0058-14.4454 30.563-14.0105 29.6882-14.0105Z"/>
  </g>
  <g id="Black-S" transform="matrix(1 0 0 1 2884.57 696)">
   <path class="SFSymbolsPreviewWireframe" d="M48.8281 6.83594C71.9727 6.83594 90.8203-12.0117 90.8203-35.1562C90.8203-58.3008 71.9727-77.1484 48.8281-77.1484C25.6836-77.1484 6.83594-58.3008 6.83594-35.1562C6.83594-12.0117 25.6836 6.83594 48.8281 6.83594ZM33.252-17.5293C30.3711-17.5293 28.8574-20.459 28.8574-26.5137C28.8574-39.7461 35.8887-47.0703 47.0703-47.0703L47.168-47.0703L47.168-52.3438C47.168-54.7363 49.0234-56.6406 51.5137-56.6406C52.9297-56.6406 54.1016-56.1035 55.6641-54.6875L71.6797-39.9902C72.5586-39.209 73.0957-37.9883 73.0957-36.8164C73.0957-35.7422 72.5586-34.4238 71.6797-33.5938L55.6641-18.9453C54.1992-17.5781 53.0273-16.9922 51.5137-16.9922C49.0234-16.9922 47.168-18.8965 47.168-21.2891L47.168-26.3672L47.0703-26.3672C41.6992-26.3672 39.1602-23.3887 37.6465-20.7031C36.377-18.457 35.2051-17.5293 33.252-17.5293Z"/>
  </g>
  <g id="Heavy-S" transform="matrix(1 0 0 1 2588.47 696)">
   <path class="SFSymbolsPreviewWireframe" d="M48.2173 6.21362C70.9816 6.21362 89.6102-12.4036 89.6102-35.1678C89.6102-57.932 70.97-76.5492 48.2058-76.5492C25.4531-76.5492 6.83594-57.932 6.83594-35.1678C6.83594-12.4036 25.4646 6.21362 48.2173 6.21362ZM31.7422-17.6676C29.2647-17.6676 27.8202-20.1478 27.8202-25.2575C27.8202-38.9624 34.6556-46.9666 46.8744-46.9666L47.0758-46.9666L47.0758-52.8047C47.0758-54.9899 48.7699-56.7559 51.0527-56.7559C52.3996-56.7559 53.4562-56.2303 54.9495-54.8719L71.115-39.9672C71.9593-39.209 72.4388-38.0805 72.4388-37.0008C72.4388-35.9957 71.9593-34.8041 71.115-33.9971L54.9495-19.1067C53.5654-17.8086 52.4626-17.2573 51.0412-17.2573C48.7699-17.2573 47.0758-18.9772 47.0758-21.1623L47.0758-26.8858L46.8744-26.8858C40.9501-26.8858 37.8348-24.1608 35.768-20.4726C34.6252-18.4225 33.4649-17.6676 31.7422-17.6676Z"/>
  </g>
  <g id="Bold-S" transform="matrix(1 0 0 1 2292.43 696)">
   <path class="SFSymbolsPreviewWireframe" d="M47.5342 5.51758C69.873 5.51758 88.2568-12.8418 88.2568-35.1807C88.2568-57.5195 69.8486-75.8789 47.5098-75.8789C25.1953-75.8789 6.83594-57.5195 6.83594-35.1807C6.83594-12.8418 25.2197 5.51758 47.5342 5.51758ZM30.0537-17.8223C28.0273-17.8223 26.6602-19.7998 26.6602-23.8525C26.6602-38.0859 33.2764-46.8506 46.6553-46.8506L46.9727-46.8506L46.9727-53.3203C46.9727-55.2734 48.4863-56.8848 50.5371-56.8848C51.8066-56.8848 52.7344-56.3721 54.1504-55.0781L70.4834-39.9414C71.2891-39.209 71.7041-38.1836 71.7041-37.207C71.7041-36.2793 71.2891-35.2295 70.4834-34.4482L54.1504-19.2871C52.8564-18.0664 51.8311-17.5537 50.5127-17.5537C48.4863-17.5537 46.9727-19.0674 46.9727-21.0205L46.9727-27.4658L46.6553-27.4658C40.1123-27.4658 36.3525-25.0244 33.667-20.2148C32.666-18.3838 31.5186-17.8223 30.0537-17.8223Z"/>
  </g>
  <g id="Semibold-S" transform="matrix(1 0 0 1 1996.19 696)">
   <path class="SFSymbolsPreviewWireframe" d="M47.0632 5.0377C69.1088 5.0377 87.3237-13.1439 87.3237-35.1896C87.3237-57.2352 69.0755-75.4168 47.0299-75.4168C25.0176-75.4168 6.83594-57.2352 6.83594-35.1896C6.83594-13.1439 25.0509 5.0377 47.0632 5.0377ZM28.8896-17.9289C27.1742-17.9289 25.8604-19.5599 25.8604-22.8839C25.8604-37.4816 32.3255-46.7706 46.5042-46.7706L46.9016-46.7706L46.9016-53.6758C46.9016-55.4689 48.2908-56.9736 50.1816-56.9736C51.3979-56.9736 52.2367-56.4698 53.5994-55.2203L70.0479-39.9236C70.827-39.209 71.1976-38.2547 71.1976-37.3492C71.1976-36.4748 70.827-35.5228 70.0479-34.7593L53.5994-19.4115C52.3677-18.2441 51.3956-17.7581 50.1483-17.7581C48.2908-17.7581 46.9016-19.1296 46.9016-20.9228L46.9016-27.8657L46.5042-27.8657C39.5347-27.8657 35.3306-25.6198 32.2185-20.0371C31.3152-18.3571 30.1767-17.9289 28.8896-17.9289Z"/>
  </g>
  <g id="Medium-S" transform="matrix(1 0 0 1 1699.83 696)">
   <path class="SFSymbolsPreviewWireframe" d="M46.7061 4.67383C68.5293 4.67383 86.6162-13.373 86.6162-35.1963C86.6162-57.0195 68.4893-75.0664 46.666-75.0664C24.8828-75.0664 6.83594-57.0195 6.83594-35.1963C6.83594-13.373 24.9229 4.67383 46.7061 4.67383ZM28.0068-18.0098C26.5273-18.0098 25.2539-19.3779 25.2539-22.1494C25.2539-37.0234 31.6045-46.71 46.3896-46.71L46.8477-46.71L46.8477-53.9453C46.8477-55.6172 48.1426-57.041 49.9121-57.041C51.0879-57.041 51.8594-56.5439 53.1816-55.3281L69.7178-39.9102C70.4766-39.209 70.8135-38.3086 70.8135-37.457C70.8135-36.623 70.4766-35.7451 69.7178-34.9951L53.1816-19.5059C51.9971-18.3789 51.0654-17.9131 49.8721-17.9131C48.1426-17.9131 46.8477-19.1768 46.8477-20.8486L46.8477-28.1689L46.3896-28.1689C39.0967-28.1689 34.5557-26.0713 31.1201-19.9023C30.291-18.3369 29.1592-18.0098 28.0068-18.0098Z"/>
  </g>
  <g id="Regular-S" transform="matrix(1 0 0 1 1403.58 696)">
   <path class="SFSymbolsPreviewWireframe" d="M46.2402 4.19922C67.7734 4.19922 85.6934-13.6719 85.6934-35.2051C85.6934-56.7383 67.7246-74.6094 46.1914-74.6094C24.707-74.6094 6.83594-56.7383 6.83594-35.2051C6.83594-13.6719 24.7559 4.19922 46.2402 4.19922ZM26.8555-18.1152C25.6836-18.1152 24.4629-19.1406 24.4629-21.1914C24.4629-36.4258 30.6641-46.6309 46.2402-46.6309L46.7773-46.6309L46.7773-54.2969C46.7773-55.8105 47.9492-57.1289 49.5605-57.1289C50.6836-57.1289 51.3672-56.6406 52.6367-55.4688L69.2871-39.8926C70.0195-39.209 70.3125-38.3789 70.3125-37.5977C70.3125-36.8164 70.0195-36.0352 69.2871-35.3027L52.6367-19.6289C51.5137-18.5547 50.6348-18.1152 49.5117-18.1152C47.9492-18.1152 46.7773-19.2383 46.7773-20.752L46.7773-28.5645L46.2402-28.5645C38.5254-28.5645 33.5449-26.6602 29.6875-19.7266C28.9551-18.3105 27.832-18.1152 26.8555-18.1152Z"/>
  </g>
  <g id="Light-S" transform="matrix(1 0 0 1 1107.6 696)">
   <path class="SFSymbolsPreviewWireframe" d="M45.5137 3.47266C66.6836 3.47266 84.2251-14.0352 84.2251-35.2051C84.2251-56.375 66.6499-73.8828 45.48-73.8828C24.3286-73.8828 6.83594-56.375 6.83594-35.2051C6.83594-14.0352 24.3623 3.47266 45.5137 3.47266ZM25.7354-18.2666C24.7149-18.2666 23.6909-19.1558 23.6909-20.8584C23.6909-36.9404 30.8154-46.2373 45.6802-46.2373L46.3687-46.2373L46.3687-54.5693C46.3687-55.8711 47.3135-56.9927 48.6978-56.9927C49.6694-56.9927 50.2925-56.5498 51.2896-55.6201L68.1519-39.8926C69.0357-39.0879 69.2832-38.3335 69.2832-37.6128C69.2832-36.8921 69.0205-36.1714 68.1519-35.333L51.2896-19.5381C50.3936-18.6758 49.6358-18.2666 48.6641-18.2666C47.3135-18.2666 46.3687-19.2534 46.3687-20.5552L46.3687-28.9277L45.6802-28.9277C37.0723-28.9277 31.7285-26.6904 28.1284-19.7568C27.502-18.5073 26.6211-18.2666 25.7354-18.2666Z"/>
  </g>
  <g id="Thin-S" transform="matrix(1 0 0 1 811.863 696)">
   <path class="SFSymbolsPreviewWireframe" d="M44.5527 2.51173C65.2422 2.51173 82.2832-14.5156 82.2832-35.2051C82.2832-55.8945 65.2285-72.9219 44.5391-72.9219C23.8281-72.9219 6.83594-55.8945 6.83594-35.2051C6.83594-14.5156 23.8418 2.51173 44.5527 2.51173ZM24.2539-18.4668C23.4336-18.4668 22.6699-19.1758 22.6699-20.418C22.6699-37.6211 31.0156-45.7168 44.9395-45.7168L45.8281-45.7168L45.8281-54.9297C45.8281-55.9512 46.4727-56.8125 47.5567-56.8125C48.3281-56.8125 48.8711-56.4297 49.5078-55.8203L66.6504-39.8926C67.7344-38.9277 67.9219-38.2734 67.9219-37.6328C67.9219-36.9922 67.6992-36.3516 66.6504-35.373L49.5078-19.418C48.9121-18.8359 48.3145-18.4668 47.543-18.4668C46.4727-18.4668 45.8281-19.2734 45.8281-20.2949L45.8281-29.4082L44.9395-29.4082C35.1504-29.4082 29.3262-26.7305 26.0664-19.7969C25.5801-18.7676 25.0196-18.4668 24.2539-18.4668Z"/>
  </g>
  <g id="Ultralight-S" transform="matrix(1 0 0 1 515.649 696)">
   <path class="SFSymbolsPreviewWireframe" d="M44.0606 2.01955C64.5039 2.01955 81.2886-14.7617 81.2886-35.2051C81.2886-55.6484 64.5005-72.4297 44.0571-72.4297C23.5718-72.4297 6.83594-55.6484 6.83594-35.2051C6.83594-14.7617 23.5752 2.01955 44.0606 2.01955ZM23.4951-18.5693C22.7774-18.5693 22.147-19.186 22.147-20.1924C22.147-37.9697 31.1182-45.4502 44.5601-45.4502L45.5513-45.4502L45.5513-55.1143C45.5513-55.9922 46.042-56.7202 46.9722-56.7202C47.6411-56.7202 48.1431-56.3682 48.5952-55.9228L65.8814-39.8926C67.0679-38.8457 67.2246-38.2427 67.2246-37.6431C67.2246-37.0435 67.0225-36.4438 65.8814-35.3936L48.5952-19.3564C48.1533-18.918 47.6377-18.5693 46.9688-18.5693C46.042-18.5693 45.5513-19.2837 45.5513-20.1616L45.5513-29.6543L44.5601-29.6543C34.166-29.6543 28.0957-26.751 25.0103-19.8174C24.5957-18.9009 24.1992-18.5693 23.4951-18.5693Z"/>
  </g>
 </g>
</svg>
