<?xml version="1.0" encoding="UTF-8"?>
<!--Generator: Apple Native CoreSVG 341-->
<!DOCTYPE svg
PUBLIC "-//W3C//DTD SVG 1.1//EN"
       "http://www.w3.org/Graphics/SVG/1.1/DTD/svg11.dtd">
<svg version="1.1" xmlns="http://www.w3.org/2000/svg" xmlns:xlink="http://www.w3.org/1999/xlink" viewBox="0 0 3300 2200">
 <!--glyph: "10096D", point size: 100.0, font version: "20.0d10e1", template writer version: "138.0.0"-->
 <style>.monochrome-0 {-sfsymbols-motion-group:0;-sfsymbols-layer-tags:puzzlepiece.extension}

.multicolor-0:tintColor {-sfsymbols-motion-group:0;-sfsymbols-layer-tags:puzzlepiece.extension}

.hierarchical-0:primary {-sfsymbols-motion-group:0;-sfsymbols-layer-tags:puzzlepiece.extension}

.SFSymbolsPreviewWireframe {fill:none;opacity:1.0;stroke:black;stroke-width:0.5}
</style>
 <g id="Notes">
  <rect height="2200" id="artboard" style="fill:white;opacity:1" width="3300" x="0" y="0"/>
  <line style="fill:none;stroke:black;opacity:1;stroke-width:0.5;" x1="263" x2="3036" y1="292" y2="292"/>
  <text style="stroke:none;fill:black;font-family:sans-serif;font-size:13;font-weight:bold;" transform="matrix(1 0 0 1 263 322)">Weight/Scale Variations</text>
  <text style="stroke:none;fill:black;font-family:sans-serif;font-size:13;text-anchor:middle;" transform="matrix(1 0 0 1 559.711 322)">Ultralight</text>
  <text style="stroke:none;fill:black;font-family:sans-serif;font-size:13;text-anchor:middle;" transform="matrix(1 0 0 1 856.422 322)">Thin</text>
  <text style="stroke:none;fill:black;font-family:sans-serif;font-size:13;text-anchor:middle;" transform="matrix(1 0 0 1 1153.13 322)">Light</text>
  <text style="stroke:none;fill:black;font-family:sans-serif;font-size:13;text-anchor:middle;" transform="matrix(1 0 0 1 1449.84 322)">Regular</text>
  <text style="stroke:none;fill:black;font-family:sans-serif;font-size:13;text-anchor:middle;" transform="matrix(1 0 0 1 1746.56 322)">Medium</text>
  <text style="stroke:none;fill:black;font-family:sans-serif;font-size:13;text-anchor:middle;" transform="matrix(1 0 0 1 2043.27 322)">Semibold</text>
  <text style="stroke:none;fill:black;font-family:sans-serif;font-size:13;text-anchor:middle;" transform="matrix(1 0 0 1 2339.98 322)">Bold</text>
  <text style="stroke:none;fill:black;font-family:sans-serif;font-size:13;text-anchor:middle;" transform="matrix(1 0 0 1 2636.69 322)">Heavy</text>
  <text style="stroke:none;fill:black;font-family:sans-serif;font-size:13;text-anchor:middle;" transform="matrix(1 0 0 1 2933.4 322)">Black</text>
  <line style="fill:none;stroke:black;opacity:1;stroke-width:0.5;" x1="263" x2="3036" y1="1903" y2="1903"/>
  <g transform="matrix(0.2 0 0 0.2 263 1933)">
   <path d="m46.2402 4.15039c21.7773 0 39.4531-17.627 39.4531-39.4043s-17.6758-39.4043-39.4531-39.4043c-21.7285 0-39.4043 17.627-39.4043 39.4043s17.6758 39.4043 39.4043 39.4043Zm0-7.42188c-17.6758 0-31.9336-14.3066-31.9336-31.9824s14.2578-31.9824 31.9336-31.9824 31.9824 14.3066 31.9824 31.9824-14.3066 31.9824-31.9824 31.9824Zm-17.9688-31.9824c0 2.14844 1.51367 3.61328 3.75977 3.61328h10.498v10.5957c0 2.19727 1.46484 3.71094 3.61328 3.71094 2.24609 0 3.71094-1.51367 3.71094-3.71094v-10.5957h10.5957c2.19727 0 3.71094-1.46484 3.71094-3.61328 0-2.19727-1.51367-3.71094-3.71094-3.71094h-10.5957v-10.5469c0-2.24609-1.46484-3.75977-3.71094-3.75977-2.14844 0-3.61328 1.51367-3.61328 3.75977v10.5469h-10.498c-2.24609 0-3.75977 1.51367-3.75977 3.71094Z"/>
  </g>
  <g transform="matrix(0.2 0 0 0.2 281.506 1933)">
   <path d="m58.5449 14.5508c27.4902 0 49.8047-22.3145 49.8047-49.8047s-22.3145-49.8047-49.8047-49.8047-49.8047 22.3145-49.8047 49.8047 22.3145 49.8047 49.8047 49.8047Zm0-8.30078c-22.9492 0-41.5039-18.5547-41.5039-41.5039s18.5547-41.5039 41.5039-41.5039 41.5039 18.5547 41.5039 41.5039-18.5547 41.5039-41.5039 41.5039Zm-22.6562-41.5039c0 2.39258 1.66016 4.00391 4.15039 4.00391h14.3555v14.4043c0 2.44141 1.66016 4.15039 4.05273 4.15039 2.44141 0 4.15039-1.66016 4.15039-4.15039v-14.4043h14.4043c2.44141 0 4.15039-1.61133 4.15039-4.00391 0-2.44141-1.70898-4.15039-4.15039-4.15039h-14.4043v-14.3555c0-2.49023-1.70898-4.19922-4.15039-4.19922-2.39258 0-4.05273 1.70898-4.05273 4.19922v14.3555h-14.3555c-2.49023 0-4.15039 1.70898-4.15039 4.15039Z"/>
  </g>
  <g transform="matrix(0.2 0 0 0.2 304.924 1933)">
   <path d="m74.8535 28.3203c35.1074 0 63.623-28.4668 63.623-63.5742s-28.5156-63.623-63.623-63.623-63.5742 28.5156-63.5742 63.623 28.4668 63.5742 63.5742 63.5742Zm0-9.08203c-30.127 0-54.4922-24.3652-54.4922-54.4922s24.3652-54.4922 54.4922-54.4922 54.4922 24.3652 54.4922 54.4922-24.3652 54.4922-54.4922 54.4922Zm-28.8574-54.4922c0 2.58789 1.85547 4.39453 4.58984 4.39453h19.7266v19.7754c0 2.68555 1.85547 4.58984 4.44336 4.58984 2.68555 0 4.54102-1.85547 4.54102-4.58984v-19.7754h19.7754c2.68555 0 4.58984-1.80664 4.58984-4.39453 0-2.73438-1.85547-4.58984-4.58984-4.58984h-19.7754v-19.7266c0-2.73438-1.85547-4.63867-4.54102-4.63867-2.58789 0-4.44336 1.9043-4.44336 4.63867v19.7266h-19.7266c-2.73438 0-4.58984 1.85547-4.58984 4.58984Z"/>
  </g>
  <text style="stroke:none;fill:black;font-family:sans-serif;font-size:13;font-weight:bold;" transform="matrix(1 0 0 1 263 1953)">Design Variations</text>
  <text style="stroke:none;fill:black;font-family:sans-serif;font-size:13;" transform="matrix(1 0 0 1 263 1971)">Symbols are supported in up to nine weights and three scales.</text>
  <text style="stroke:none;fill:black;font-family:sans-serif;font-size:13;" transform="matrix(1 0 0 1 263 1989)">For optimal layout with text and other symbols, vertically align</text>
  <text style="stroke:none;fill:black;font-family:sans-serif;font-size:13;" transform="matrix(1 0 0 1 263 2007)">symbols with the adjacent text.</text>
  <line style="fill:none;stroke:#00AEEF;stroke-width:0.5;opacity:1.0;" x1="776" x2="776" y1="1919" y2="1933"/>
  <g transform="matrix(0.2 0 0 0.2 776 1933)">
   <path d="m16.5527 0.78125c2.58789 0 3.85742-0.976562 4.78516-3.71094l6.29883-17.2363h28.8086l6.29883 17.2363c0.927734 2.73438 2.19727 3.71094 4.73633 3.71094 2.58789 0 4.24805-1.5625 4.24805-4.00391 0-0.830078-0.146484-1.61133-0.537109-2.63672l-22.9004-60.9863c-1.12305-2.97852-3.125-4.49219-6.25-4.49219-3.02734 0-5.07812 1.46484-6.15234 4.44336l-22.9004 61.084c-0.390625 1.02539-0.537109 1.80664-0.537109 2.63672 0 2.44141 1.5625 3.95508 4.10156 3.95508Zm13.4766-28.3691 11.8652-32.8613h0.244141l11.8652 32.8613Z"/>
  </g>
  <line style="fill:none;stroke:#00AEEF;stroke-width:0.5;opacity:1.0;" x1="792.836" x2="792.836" y1="1919" y2="1933"/>
  <text style="stroke:none;fill:black;font-family:sans-serif;font-size:13;font-weight:bold;" transform="matrix(1 0 0 1 776 1953)">Margins</text>
  <text style="stroke:none;fill:black;font-family:sans-serif;font-size:13;" transform="matrix(1 0 0 1 776 1971)">Leading and trailing margins on the left and right side of each symbol</text>
  <text style="stroke:none;fill:black;font-family:sans-serif;font-size:13;" transform="matrix(1 0 0 1 776 1989)">can be adjusted by modifying the x-location of the margin guidelines.</text>
  <text style="stroke:none;fill:black;font-family:sans-serif;font-size:13;" transform="matrix(1 0 0 1 776 2007)">Modifications are automatically applied proportionally to all</text>
  <text style="stroke:none;fill:black;font-family:sans-serif;font-size:13;" transform="matrix(1 0 0 1 776 2025)">scales and weights.</text>
  <g transform="matrix(0.2 0 0 0.2 1289 1933)">
   <path d="m14.209 9.32617 8.49609 8.54492c4.29688 4.3457 9.22852 4.05273 13.8672-1.07422l53.4668-58.9355-4.83398-4.88281-53.0762 58.3984c-1.75781 2.00195-3.41797 2.49023-5.76172 0.146484l-5.85938-5.81055c-2.34375-2.29492-1.80664-4.00391 0.195312-5.81055l57.373-54.0039-4.88281-4.83398-57.959 54.4434c-4.93164 4.58984-5.32227 9.47266-1.02539 13.8184Zm32.0801-90.9668c-2.09961 2.05078-2.24609 4.93164-1.07422 6.88477 1.17188 1.80664 3.4668 2.97852 6.68945 2.14844 7.32422-1.70898 14.9414-2.00195 22.0703 2.68555l-2.92969 7.27539c-1.70898 4.15039-0.830078 7.08008 1.85547 9.81445l11.4746 11.5723c2.44141 2.44141 4.49219 2.53906 7.32422 2.05078l5.32227-0.976562 3.32031 3.36914-0.195312 2.7832c-0.195312 2.49023 0.439453 4.39453 2.88086 6.78711l3.80859 3.71094c2.39258 2.39258 5.46875 2.53906 7.8125 0.195312l14.5508-14.5996c2.34375-2.34375 2.24609-5.32227-0.146484-7.71484l-3.85742-3.80859c-2.39258-2.39258-4.24805-3.17383-6.64062-2.97852l-2.88086 0.244141-3.22266-3.17383 1.2207-5.61523c0.634766-2.83203-0.146484-5.0293-3.07617-7.95898l-10.9863-10.9375c-16.6992-16.6016-38.8672-16.2109-53.3203-1.75781Zm7.4707 1.85547c12.1582-8.88672 28.6133-7.37305 39.7461 3.75977l12.1582 12.0605c1.17188 1.17188 1.36719 2.09961 1.02539 3.80859l-1.61133 7.42188 7.51953 7.42188 4.93164-0.292969c1.26953-0.0488281 1.66016 0.0488281 2.63672 1.02539l2.88086 2.88086-12.207 12.207-2.88086-2.88086c-0.976562-0.976562-1.12305-1.36719-1.07422-2.68555l0.341797-4.88281-7.4707-7.42188-7.61719 1.26953c-1.61133 0.341797-2.34375 0.195312-3.56445-0.976562l-10.0098-10.0098c-1.26953-1.17188-1.41602-2.00195-0.634766-3.85742l4.39453-10.4492c-7.8125-7.27539-17.9688-10.4004-28.125-7.42188-0.78125 0.195312-1.07422-0.439453-0.439453-0.976562Z"/>
  </g>
  <text style="stroke:none;fill:black;font-family:sans-serif;font-size:13;font-weight:bold;" transform="matrix(1 0 0 1 1289 1953)">Exporting</text>
  <text style="stroke:none;fill:black;font-family:sans-serif;font-size:13;" transform="matrix(1 0 0 1 1289 1971)">Symbols should be outlined when exporting to ensure the</text>
  <text style="stroke:none;fill:black;font-family:sans-serif;font-size:13;" transform="matrix(1 0 0 1 1289 1989)">design is preserved when submitting to Xcode.</text>
  <text id="template-version" style="stroke:none;fill:black;font-family:sans-serif;font-size:13;text-anchor:end;" transform="matrix(1 0 0 1 3036 1933)">Template v.6.0</text>
  <text style="stroke:none;fill:black;font-family:sans-serif;font-size:13;text-anchor:end;" transform="matrix(1 0 0 1 3036 1951)">Requires Xcode 16 or greater</text>
  <text id="descriptive-name" style="stroke:none;fill:black;font-family:sans-serif;font-size:13;text-anchor:end;" transform="matrix(1 0 0 1 3036 1969)">Generated from puzzlepiece.extension</text>
  <text style="stroke:none;fill:black;font-family:sans-serif;font-size:13;text-anchor:end;" transform="matrix(1 0 0 1 3036 1987)">Typeset at 100.0 points</text>
  <text style="stroke:none;fill:black;font-family:sans-serif;font-size:13;" transform="matrix(1 0 0 1 263 726)">Small</text>
  <text style="stroke:none;fill:black;font-family:sans-serif;font-size:13;" transform="matrix(1 0 0 1 263 1156)">Medium</text>
  <text style="stroke:none;fill:black;font-family:sans-serif;font-size:13;" transform="matrix(1 0 0 1 263 1586)">Large</text>
 </g>
 <g id="Guides">
  <g id="H-reference" style="fill:#27AAE1;stroke:none;" transform="matrix(1 0 0 1 339 696)">
   <path d="M0.993654 0L3.63775 0L29.3281-67.1323L30.0303-67.1323L30.0303-70.459L28.1226-70.459ZM11.6885-24.4799L46.9815-24.4799L46.2315-26.7285L12.4385-26.7285ZM55.1196 0L57.7637 0L30.6382-70.459L29.4326-70.459L29.4326-67.1323Z"/>
  </g>
  <line id="Baseline-S" style="fill:none;stroke:#27AAE1;opacity:1;stroke-width:0.5;" x1="263" x2="3036" y1="696" y2="696"/>
  <line id="Capline-S" style="fill:none;stroke:#27AAE1;opacity:1;stroke-width:0.5;" x1="263" x2="3036" y1="625.541" y2="625.541"/>
  <g id="H-reference" style="fill:#27AAE1;stroke:none;" transform="matrix(1 0 0 1 339 1126)">
   <path d="M0.993654 0L3.63775 0L29.3281-67.1323L30.0303-67.1323L30.0303-70.459L28.1226-70.459ZM11.6885-24.4799L46.9815-24.4799L46.2315-26.7285L12.4385-26.7285ZM55.1196 0L57.7637 0L30.6382-70.459L29.4326-70.459L29.4326-67.1323Z"/>
  </g>
  <line id="Baseline-M" style="fill:none;stroke:#27AAE1;opacity:1;stroke-width:0.5;" x1="263" x2="3036" y1="1126" y2="1126"/>
  <line id="Capline-M" style="fill:none;stroke:#27AAE1;opacity:1;stroke-width:0.5;" x1="263" x2="3036" y1="1055.54" y2="1055.54"/>
  <g id="H-reference" style="fill:#27AAE1;stroke:none;" transform="matrix(1 0 0 1 339 1556)">
   <path d="M0.993654 0L3.63775 0L29.3281-67.1323L30.0303-67.1323L30.0303-70.459L28.1226-70.459ZM11.6885-24.4799L46.9815-24.4799L46.2315-26.7285L12.4385-26.7285ZM55.1196 0L57.7637 0L30.6382-70.459L29.4326-70.459L29.4326-67.1323Z"/>
  </g>
  <line id="Baseline-L" style="fill:none;stroke:#27AAE1;opacity:1;stroke-width:0.5;" x1="263" x2="3036" y1="1556" y2="1556"/>
  <line id="Capline-L" style="fill:none;stroke:#27AAE1;opacity:1;stroke-width:0.5;" x1="263" x2="3036" y1="1485.54" y2="1485.54"/>
  <line id="right-margin-Black-S" style="fill:none;stroke:#00AEEF;stroke-width:0.5;opacity:1.0;" x1="2991.43" x2="2991.43" y1="600.785" y2="720.121"/>
  <line id="left-margin-Black-S" style="fill:none;stroke:#00AEEF;stroke-width:0.5;opacity:1.0;" x1="2875.37" x2="2875.37" y1="600.785" y2="720.121"/>
  <line id="right-margin-Regular-S" style="fill:none;stroke:#00AEEF;stroke-width:0.5;opacity:1.0;" x1="1505.31" x2="1505.31" y1="600.785" y2="720.121"/>
  <line id="left-margin-Regular-S" style="fill:none;stroke:#00AEEF;stroke-width:0.5;opacity:1.0;" x1="1394.38" x2="1394.38" y1="600.785" y2="720.121"/>
  <line id="right-margin-Ultralight-S" style="fill:none;stroke:#00AEEF;stroke-width:0.5;opacity:1.0;" x1="613.318" x2="613.318" y1="600.785" y2="720.121"/>
  <line id="left-margin-Ultralight-S" style="fill:none;stroke:#00AEEF;stroke-width:0.5;opacity:1.0;" x1="506.104" x2="506.104" y1="600.785" y2="720.121"/>
 </g>
 <g id="Symbols">
  <g id="Black-S" transform="matrix(1 0 0 1 2875.37 696)">
   <path class="monochrome-0 multicolor-0:tintColor hierarchical-0:primary SFSymbolsPreviewWireframe" d="M9.76562-9.17969C9.76562-0.878906 15.3809 4.6875 23.8281 4.6875L71.9727 4.6875C80.4199 4.6875 86.0352-0.878906 86.0352-9.17969L86.0352-18.5547C86.0352-19.2383 86.5234-19.4336 87.3047-19.0918C88.7207-18.457 90.5762-18.2129 92.7734-18.2129C101.074-18.2129 109.229-24.4629 109.229-35.3027C109.229-46.1426 101.074-52.3926 92.7734-52.3926C90.5762-52.3926 88.7207-52.1484 87.3047-51.5137C86.5234-51.1719 86.0352-51.3672 86.0352-52.0508L86.0352-61.4258C86.0352-69.7266 80.4199-75.293 71.9727-75.293L23.8281-75.293C15.3809-75.293 9.76562-69.7266 9.76562-61.4258L9.76562-44.8242C9.76562-40.1367 13.0371-36.6699 17.4316-36.6699C20.1172-36.6699 21.7285-37.5977 23.1934-38.5254C24.707-39.502 26.0254-40.4785 28.0762-40.4785C31.1523-40.4785 33.2031-38.4277 33.2031-35.3027C33.2031-32.1777 31.1523-30.127 28.0762-30.127C26.0254-30.127 24.707-31.1035 23.1934-32.0801C21.7285-33.0078 20.1172-33.9355 17.4316-33.9355C13.0371-33.9355 9.76562-30.4688 9.76562-25.7812ZM21.9727-9.57031L21.9727-18.5547C21.9727-19.2383 22.4609-19.4336 23.2422-19.0918C24.6582-18.457 26.5137-18.2129 28.7109-18.2129C37.0117-18.2129 45.166-24.4629 45.166-35.3027C45.166-46.1426 37.0117-52.3926 28.7109-52.3926C26.5137-52.3926 24.6582-52.1484 23.2422-51.5137C22.4609-51.1719 21.9727-51.3672 21.9727-52.0508L21.9727-61.0352C21.9727-62.2559 22.7539-63.0859 23.9258-63.0859L71.875-63.0859C73.0469-63.0859 73.8281-62.2559 73.8281-61.0352L73.8281-44.8242C73.8281-40.1367 77.0996-36.6699 81.4941-36.6699C84.1797-36.6699 85.791-37.5977 87.2559-38.5254C88.7695-39.502 90.0879-40.4785 92.1387-40.4785C95.2148-40.4785 97.2656-38.4277 97.2656-35.3027C97.2656-32.1777 95.2148-30.127 92.1387-30.127C90.0879-30.127 88.7695-31.1035 87.2559-32.0801C85.791-33.0078 84.1797-33.9355 81.4941-33.9355C77.0996-33.9355 73.8281-30.4688 73.8281-25.7812L73.8281-9.57031C73.8281-8.34961 73.0469-7.51953 71.875-7.51953L23.9258-7.51953C22.7539-7.51953 21.9727-8.34961 21.9727-9.57031Z"/>
  </g>
  <g id="Regular-S" transform="matrix(1 0 0 1 1394.38 696)">
   <path class="monochrome-0 multicolor-0:tintColor hierarchical-0:primary SFSymbolsPreviewWireframe" d="M9.76562-10.0586C9.76562-1.95312 13.916 2.09961 22.168 2.09961L68.5059 2.09961C76.709 2.09961 80.8594-1.95312 80.8594-10.0586L80.8594-22.9492C80.8594-23.4375 81.2012-23.6816 81.7871-23.2422C84.2773-21.5332 87.207-20.5078 89.9414-20.5078C97.2168-20.5078 104.102-26.5137 104.102-35.2539C104.102-44.043 97.2168-50 89.9414-50C87.207-50 84.2773-49.0234 81.7871-47.2656C81.2012-46.875 80.8594-47.0703 80.8594-47.6074L80.8594-60.5469C80.8594-68.6523 76.709-72.7051 68.5059-72.7051L22.168-72.7051C13.916-72.7051 9.76562-68.6523 9.76562-60.5469L9.76562-43.7988C9.76562-40.3809 12.0605-38.2324 14.8926-38.2324C16.4551-38.2324 18.1152-38.916 19.6777-40.3809C21.4355-41.9922 23.5352-43.0176 25.5371-43.0176C29.5898-43.0176 33.2031-39.9414 33.2031-35.2539C33.2031-30.5664 29.5898-27.4902 25.5371-27.4902C23.5352-27.4902 21.4355-28.5156 19.6777-30.127C18.1152-31.5918 16.4551-32.2754 14.8926-32.2754C12.0605-32.2754 9.76562-30.127 9.76562-26.709ZM16.7969-10.4492L16.7969-22.168C16.7969-24.1211 17.7246-23.2422 18.4082-22.8516C20.7031-21.3867 23.3398-20.5078 25.8789-20.5078C33.1543-20.5078 39.9902-26.5137 39.9902-35.2539C39.9902-43.9941 33.1543-50 25.8789-50C23.3398-50 20.7031-49.1211 18.4082-47.6562C17.7246-47.2656 16.7969-46.3867 16.7969-48.3398L16.7969-60.1562C16.7969-63.7695 18.7988-65.6738 22.2656-65.6738L68.4082-65.6738C71.8262-65.6738 73.8281-63.7695 73.8281-60.1562L73.8281-43.8477C73.8281-40.4297 76.123-38.2324 78.9551-38.2324C80.5176-38.2324 82.1777-38.916 83.7402-40.3809C85.498-42.041 87.5977-43.0176 89.5996-43.0176C93.6523-43.0176 97.2656-39.9414 97.2656-35.2539C97.2656-30.6152 93.6523-27.4902 89.5996-27.4902C87.5977-27.4902 85.498-28.5156 83.7402-30.127C82.1777-31.5918 80.5176-32.2754 78.9551-32.2754C76.123-32.2754 73.8281-30.127 73.8281-26.709L73.8281-10.4492C73.8281-6.83594 71.8262-4.93164 68.4082-4.93164L22.2656-4.93164C18.7988-4.93164 16.7969-6.83594 16.7969-10.4492Z"/>
  </g>
  <g id="Ultralight-S" transform="matrix(1 0 0 1 506.104 696)">
   <path class="monochrome-0 multicolor-0:tintColor hierarchical-0:primary SFSymbolsPreviewWireframe" d="M9.76562-8.74171C9.76562-3.6787 13.1895-0.30711 18.399-0.30711L68.3242-0.30711C73.5303-0.30711 76.9541-3.6787 76.9541-8.74171L76.9541-25.1743C76.9541-26.2075 77.7954-26.9057 78.8809-26.103C81.0532-24.5302 83.4834-22.2788 88.5337-22.2788C95.582-22.2788 100.378-27.1948 100.378-34.6636C100.378-42.0903 95.582-47.0484 88.5337-47.0484C83.4834-47.0484 81.0532-44.7549 78.8809-43.1787C77.7954-42.4248 76.9541-43.0743 76.9541-44.1109L76.9541-61.8638C76.9541-66.9268 73.5303-70.2984 68.3242-70.2984L18.399-70.2984C13.1895-70.2984 9.76562-66.9268 9.76562-61.8638L9.76562-43.9805C9.76562-41.9248 10.9707-40.9116 12.8491-40.9116C13.7305-40.9116 14.5279-41.2773 15.5909-42.1518C17.939-44.081 20.084-45.4243 23.5391-45.4243C29.3174-45.4243 33.2031-41.3945 33.2031-35.2539C33.2031-29.1133 29.3174-25.0835 23.5391-25.0835C20.084-25.0835 17.939-26.4268 15.5909-28.356C14.5279-29.2305 13.7305-29.5962 12.8491-29.5962C10.9707-29.5962 9.76562-28.583 9.76562-26.5273ZM11.9834-8.81447L11.9834-26.2094C11.9834-27.3452 12.8658-27.4653 13.9126-26.7114C16.1167-25.1557 18.5264-22.8691 23.563-22.8691C30.6113-22.8691 35.4038-27.8306 35.4038-35.2539C35.4038-42.6773 30.6113-47.6387 23.563-47.6387C18.5264-47.6387 16.1167-45.3521 13.9126-43.7964C12.8658-43.0425 11.9834-43.1626 11.9834-44.2984L11.9834-61.791C11.9834-65.5859 14.5757-68.0805 18.4966-68.0805L68.2266-68.0805C72.144-68.0805 74.7363-65.5859 74.7363-61.791L74.7363-43.8477C74.7363-41.792 75.9868-40.3213 77.8198-40.3213C78.7012-40.3213 79.544-40.687 80.5615-41.5615C82.9551-43.4941 85.1001-44.834 88.5098-44.834C94.2881-44.834 98.1738-40.7588 98.1738-34.6636C98.1738-28.5264 94.2881-24.4932 88.5098-24.4932C85.1001-24.4932 82.9551-25.8364 80.5615-27.7656C79.544-28.6402 78.7012-28.9605 77.8198-28.9605C75.9868-28.9605 74.7363-27.5386 74.7363-25.4375L74.7363-8.81447C74.7363-5.01955 72.144-2.52492 68.2266-2.52492L18.4966-2.52492C14.5757-2.52492 11.9834-5.01955 11.9834-8.81447Z"/>
  </g>
 </g>
</svg>
